<?xml version="1.0" encoding="UTF-8" standalone="no"?>
<svg
   xmlns:dc="http://purl.org/dc/elements/1.1/"
   xmlns:cc="http://creativecommons.org/ns#"
   xmlns:rdf="http://www.w3.org/1999/02/22-rdf-syntax-ns#"
   xmlns:svg="http://www.w3.org/2000/svg"
   xmlns="http://www.w3.org/2000/svg"
   xmlns:sodipodi="http://sodipodi.sourceforge.net/DTD/sodipodi-0.dtd"
   xmlns:inkscape="http://www.inkscape.org/namespaces/inkscape"
   width="396.8743mm"
   height="60.211227mm"
   viewBox="0 0 396.8743 60.211227"
   version="1.1"
   id="svg8"
   inkscape:version="1.0.1 (0767f8302a, 2020-10-17)"
   sodipodi:docname="acoustic.svg">
  <defs
     id="defs2">
    <rect
       x="33.332348"
       y="131.82312"
       width="103.3399"
       height="51.806301"
       id="rect562" />
    <rect
       x="33.332348"
       y="131.82312"
       width="103.3399"
       height="51.806301"
       id="rect562-5" />
    <rect
       x="33.332348"
       y="131.82312"
       width="103.3399"
       height="51.806301"
       id="rect95" />
  </defs>
  <sodipodi:namedview
     id="base"
     pagecolor="#ffffff"
     bordercolor="#666666"
     borderopacity="1.0"
     inkscape:pageopacity="0.0"
     inkscape:pageshadow="2"
     inkscape:zoom="0.98994949"
     inkscape:cx="1627.2669"
     inkscape:cy="234.97227"
     inkscape:document-units="mm"
     inkscape:current-layer="layer1"
     inkscape:document-rotation="0"
     showgrid="false"
     inkscape:window-width="1920"
     inkscape:window-height="1016"
     inkscape:window-x="0"
     inkscape:window-y="27"
     inkscape:window-maximized="1"
     fit-margin-top="0"
     fit-margin-left="0"
     fit-margin-right="0"
     fit-margin-bottom="0" />
  <metadata
     id="metadata5">
    <rdf:RDF>
      <cc:Work
         rdf:about="">
        <dc:format>image/svg+xml</dc:format>
        <dc:type
           rdf:resource="http://purl.org/dc/dcmitype/StillImage" />
        <dc:title></dc:title>
      </cc:Work>
    </rdf:RDF>
  </metadata>
  <g
     inkscape:label="Layer 1"
     inkscape:groupmode="layer"
     id="layer1"
     transform="translate(-10.641142,-85.996919)">
    <g
       id="g176"
       transform="matrix(2.2006011,0,0,2.2006011,-12.775769,-103.24802)">
      <path
         style="fill:#ffffff;stroke-width:0.128854"
         d="m 44.417905,113.33367 c -0.03716,-0.20317 -0.397379,-10.85171 -0.400627,-11.84383 -0.0015,-0.49019 -0.02708,-0.86709 -0.05659,-0.83756 -0.02951,0.0295 -0.123222,2.2281 -0.208234,4.88572 -0.08501,2.65762 -0.195393,5.00599 -0.245296,5.21859 -0.0499,0.21261 -0.168033,-1.94808 -0.262512,-4.80154 -0.09447,-2.85345 -0.197823,-5.16204 -0.229663,-5.1302 -0.03185,0.0319 -0.140025,1.40974 -0.240407,3.062 -0.100382,1.65227 -0.199463,3.05829 -0.220185,3.12448 -0.0207,0.0662 -0.112899,-1.20945 -0.204841,-2.83478 -0.156802,-2.77184 -0.33285,-4.342242 -0.396283,-3.535 -0.01393,0.17717 -0.09612,0.61205 -0.182667,0.9664 l -0.157357,0.64427 -0.158394,-0.77312 c -0.29744,-1.45176 -0.356231,-1.33328 -0.531184,1.0705 -0.09395,1.29081 -0.196191,2.32155 -0.227199,2.29054 -0.06046,-0.0605 -0.408473,-3.62664 -0.414969,-4.25229 -0.0065,-0.624768 -0.118616,-0.31112 -0.275369,0.7703 -0.08155,0.56261 -0.188107,1.09809 -0.236788,1.18995 -0.0487,0.0919 -0.164789,-0.38855 -0.258022,-1.06761 -0.09323,-0.67906 -0.190644,-1.21352 -0.21647,-1.18769 -0.02581,0.0258 -0.137696,0.91082 -0.248602,1.96665 -0.110902,1.05584 -0.218866,1.93693 -0.23992,1.95798 -0.02104,0.021 -0.112513,-0.7734 -0.203243,-1.76543 -0.09073,-0.99204 -0.214965,-1.77281 -0.276065,-1.73505 -0.0611,0.0377 -0.110755,0.31167 -0.110341,0.60869 9.74e-4,0.77449 -0.297542,5.19329 -0.340949,5.04511 -0.01997,-0.0682 -0.126262,-1.39556 -0.23616,-2.94963 -0.109903,-1.55407 -0.21986,-2.84563 -0.244356,-2.87012 -0.0245,-0.0245 -0.120013,1.60986 -0.212262,3.63189 -0.09225,2.02203 -0.194068,3.65007 -0.226254,3.61789 -0.06155,-0.0615 -0.401665,-5.6087 -0.410645,-6.69751 -0.0029,-0.34844 -0.02922,-0.60937 -0.05858,-0.57984 -0.02932,0.0295 -0.120992,1.88019 -0.203661,4.11259 -0.08267,2.2324 -0.192388,4.29084 -0.243821,4.57432 -0.05798,0.3196 -0.161433,-1.19802 -0.272291,-3.99447 -0.198757,-5.01378 -0.285707,-5.1011 -0.514752,-0.51692 -0.0814,1.62919 -0.163289,2.97744 -0.181975,2.99612 -0.0187,0.0187 -0.109752,-1.43025 -0.202371,-3.21985 -0.09262,-1.78961 -0.208074,-3.36385 -0.256571,-3.4983 -0.04851,-0.13447 -0.164423,0.95419 -0.257612,2.41925 -0.09319,1.46505 -0.184737,2.64778 -0.203448,2.62828 -0.0187,-0.0195 -0.129422,-1.28024 -0.246026,-2.80163 -0.116604,-1.5214 -0.231041,-2.78521 -0.254311,-2.80848 -0.02328,-0.0233 -0.118698,0.8394 -0.212072,1.91704 -0.19397,2.23874 -0.278023,2.17394 -0.520504,-0.40129 l -0.16379,-1.73953 -0.174597,0.83755 c -0.32689,1.56811 -0.314939,1.5611 -0.549457,0.32214 -0.120734,-0.63783 -0.252343,-1.07272 -0.292473,-0.96641 -0.04013,0.1063 -0.155068,0.45421 -0.25543,0.77312 l -0.182472,0.57985 -0.162724,-0.67649 c -0.0895,-0.37206 -0.204689,-0.67648 -0.255986,-0.67648 -0.0513,0 -0.169332,0.63964 -0.262307,1.42142 -0.09297,0.78179 -0.188711,1.40175 -0.212749,1.37771 -0.02406,-0.0241 -0.132096,-0.67328 -0.24011,-1.44275 -0.108013,-0.76946 -0.216411,-1.41905 -0.240888,-1.44352 -0.0245,-0.0245 -0.12088,1.0049 -0.214235,2.28751 -0.09335,1.28261 -0.210061,2.25447 -0.259351,2.1597 -0.04929,-0.0948 -0.167141,-1.12905 -0.261893,-2.29841 -0.09475,-1.16935 -0.189139,-2.03911 -0.20975,-1.93281 -0.0206,0.10631 -0.121601,1.63432 -0.224427,3.3956 -0.102827,1.76128 -0.21048,3.22584 -0.239228,3.25459 -0.02873,0.0287 -0.128663,-1.42725 -0.222027,-3.23556 -0.09337,-1.8083 -0.193016,-3.26456 -0.221442,-3.23614 -0.0509,0.0509 -0.412725,7.33569 -0.419402,8.444 -0.0019,0.313 -0.02576,0.54494 -0.0531,0.51541 -0.02732,-0.0295 -0.123198,-1.8512 -0.213066,-4.04816 -0.08986,-2.19696 -0.202814,-4.10558 -0.251004,-4.24136 -0.04817,-0.13578 -0.164618,2.12561 -0.258737,5.02531 -0.09412,2.89971 -0.188759,5.21421 -0.2103,5.14334 -0.0373,-0.12265 -0.434985,-9.89669 -0.434732,-10.68416 6.4e-5,-0.2067 -0.02255,-0.35166 -0.05026,-0.32213 -0.02771,0.0295 -0.125327,1.78568 -0.216933,3.90255 -0.09161,2.11687 -0.204967,3.74043 -0.251904,3.60791 -0.04695,-0.13252 -0.158736,-1.8645 -0.248442,-3.84886 -0.08971,-1.98435 -0.185619,-3.63207 -0.213139,-3.6616 -0.02752,-0.0295 -0.05198,0.11543 -0.05435,0.32213 -0.01,0.86843 -0.367058,6.39531 -0.416387,6.44463 -0.02961,0.0296 -0.130435,-1.43017 -0.224082,-3.24393 -0.09365,-1.81377 -0.209968,-3.22035 -0.258484,-3.12574 -0.04851,0.0946 -0.16005,1.21573 -0.247858,2.49139 -0.08781,1.27565 -0.174894,2.33479 -0.193527,2.35363 -0.01865,0.0189 -0.103099,-0.9379 -0.187707,-2.1261 -0.0846,-1.18819 -0.192398,-2.42127 -0.23954,-2.74019 -0.07855,-0.53145 -0.102807,-0.45618 -0.290563,0.90198 l -0.204855,1.48183 -0.166304,-1.15969 c -0.09147,-0.63783 -0.208901,-1.33364 -0.260963,-1.54625 l -0.09466,-0.38656 -0.20092,0.57984 -0.200925,0.57985 -0.25789,-0.57985 -0.257895,-0.57984 -0.0923,0.38656 c -0.05076,0.21261 -0.154202,0.6185 -0.229868,0.90198 l -0.13757,0.51541 -0.215457,-0.90197 c -0.206905,-0.8662 -0.218783,-0.88409 -0.299291,-0.45099 -0.04612,0.24804 -0.1471,0.94375 -0.224422,1.54603 -0.07732,0.60228 -0.157971,1.11244 -0.179229,1.13369 -0.02123,0.0213 -0.110453,-0.55849 -0.198227,-1.28832 -0.08777,-0.72984 -0.200306,-1.40285 -0.250088,-1.49557 -0.04978,-0.0927 -0.167224,0.82174 -0.260987,2.03217 -0.09377,1.21043 -0.189042,2.18221 -0.211722,2.15953 -0.0227,-0.0227 -0.132208,-0.9923 -0.243392,-2.15472 -0.111189,-1.16242 -0.229151,-2.14049 -0.262146,-2.17348 -0.03297,-0.033 -0.05912,0.0511 -0.05805,0.18697 0.0067,0.84715 -0.319262,5.05737 -0.388208,5.01476 -0.04617,-0.0285 -0.160727,-1.2155 -0.254549,-2.63768 -0.09382,-1.42218 -0.191842,-2.56452 -0.217834,-2.53852 -0.02601,0.026 -0.13025,0.87438 -0.231689,1.88532 -0.101439,1.01093 -0.208863,1.86249 -0.238721,1.89235 -0.02985,0.0298 -0.129389,-0.78849 -0.22118,-1.81855 -0.09179,-1.03006 -0.215423,-1.87284 -0.274735,-1.87284 -0.05931,0 -0.110546,0.15946 -0.113853,0.35435 -0.0034,0.19489 -0.0792,0.73125 -0.168641,1.1919 l -0.162622,0.83755 -0.172946,-1.15968 c -0.223984,-1.50191 -0.320646,-1.68464 -0.526927,-0.99614 -0.178771,0.59669 -0.318099,0.60601 -0.444672,0.0297 -0.154221,-0.70215 -0.293987,-0.52521 -0.458479,0.58044 -0.08957,0.60206 -0.202172,1.09466 -0.25022,1.09466 -0.04807,0 -0.16116,-0.49605 -0.251359,-1.10234 -0.0902,-0.60628 -0.181586,-1.08465 -0.203082,-1.06304 -0.02148,0.0216 -0.130918,0.96214 -0.243158,2.09007 -0.112236,1.12792 -0.224803,2.0715 -0.250142,2.09684 -0.02532,0.0253 -0.122448,-0.85402 -0.215803,-1.95414 -0.09336,-1.10011 -0.21177,-2.0002 -0.263145,-2.0002 -0.05137,0 -0.132777,0.39208 -0.180904,0.87127 -0.04812,0.4792 -0.130547,1.07354 -0.183163,1.32076 -0.08551,0.40178 -0.11244,0.33324 -0.253736,-0.64578 -0.308904,-2.140375 -0.194818,-1.93281 -1.062344,-1.93281 -0.757194,0 -0.758787,-9.8e-4 -0.758787,-0.386564 0,-0.385769 0.0015,-0.386563 0.759157,-0.386563 0.880749,0 0.805253,0.132793 1.062252,-1.86838 l 0.16548,-1.288544 0.174354,1.224113 c 0.281943,1.97953 0.361457,1.923519 0.550118,-0.387517 0.1938,-2.373948 0.249967,-2.31785 0.516969,0.516374 0.169464,1.79888 0.257588,1.858864 0.451441,0.307297 0.04792,-0.383499 0.129311,-0.723343 0.180875,-0.755212 0.05157,-0.03185 0.167492,0.437639 0.257603,1.04335 0.172103,1.156775 0.255046,1.215294 0.525793,0.370968 l 0.165275,-0.515414 0.226863,0.644272 c 0.124776,0.354347 0.235629,0.615275 0.246338,0.579841 0.01071,-0.03545 0.12016,-0.673264 0.243222,-1.417397 l 0.223755,-1.352966 0.170351,1.159687 c 0.09369,0.637829 0.210017,1.268081 0.258499,1.400566 0.04846,0.132486 0.166663,-0.679293 0.262623,-1.803954 0.195719,-2.293918 0.268385,-2.249445 0.514865,0.315138 0.09032,0.939837 0.179642,1.692074 0.198475,1.671644 0.01885,-0.02045 0.106981,-1.196831 0.195884,-2.614228 0.08891,-1.417392 0.201621,-2.654562 0.250478,-2.749256 0.04885,-0.0947 0.165319,1.051041 0.25881,2.546086 0.0935,1.495045 0.191039,2.697214 0.216767,2.671485 0.02571,-0.02571 0.137259,-0.997357 0.247839,-2.159177 0.110584,-1.161815 0.217551,-2.128881 0.237698,-2.149034 0.02016,-0.02016 0.112134,0.89551 0.204407,2.034796 0.09227,1.139287 0.209331,2.097119 0.260125,2.128511 0.0508,0.03141 0.13326,-0.362563 0.183252,-0.875455 0.04999,-0.512897 0.132563,-1.164474 0.183494,-1.447956 0.08727,-0.485688 0.101639,-0.452245 0.249197,0.579846 0.08613,0.602389 0.194818,1.327198 0.241542,1.610675 l 0.08495,0.515415 0.216573,-0.901977 0.216567,-0.901977 0.153442,0.579841 c 0.08439,0.318912 0.201392,0.724804 0.259998,0.901977 l 0.106553,0.322136 0.148035,-0.386562 c 0.08142,-0.212608 0.182059,-0.473537 0.223644,-0.579841 0.04879,-0.124742 0.1475,0.01232 0.278354,0.386562 l 0.202751,0.579841 0.09974,-0.386562 c 0.05486,-0.212608 0.171052,-0.90842 0.258217,-1.54625 l 0.158472,-1.159686 0.211201,1.417396 c 0.259039,1.738428 0.317636,1.559637 0.527302,-1.608951 0.08669,-1.310143 0.174432,-2.324872 0.194974,-2.254948 0.02055,0.06992 0.128472,1.283874 0.239851,2.697672 0.111384,1.413798 0.220386,2.588416 0.242233,2.610268 0.02187,0.02187 0.116166,-1.526725 0.209588,-3.441279 0.09342,-1.914553 0.195607,-3.455262 0.227073,-3.423797 0.0599,0.0599 0.404907,5.390685 0.4127,6.376705 0.0024,0.313005 0.02761,0.544942 0.05583,0.515415 0.02825,-0.02951 0.121737,-1.648258 0.207787,-3.59718 0.08604,-1.948917 0.197915,-3.717438 0.248593,-3.930051 0.05289,-0.221866 0.165558,1.246744 0.264455,3.447076 0.09477,2.1085 0.19173,3.814219 0.215462,3.790488 0.0414,-0.04135 0.425323,-9.40729 0.428313,-10.448177 9.74e-4,-0.277575 0.02318,-0.48052 0.04972,-0.450988 0.02654,0.02951 0.119321,2.228099 0.206165,4.885714 0.08685,2.657622 0.199225,5.005783 0.249727,5.218138 0.05094,0.214166 0.166386,-1.507299 0.259249,-3.865623 0.09208,-2.338452 0.189923,-4.27589 0.217425,-4.305418 0.02752,-0.02951 0.05,0.130358 0.05,0.355307 0,0.719962 0.404148,8.714278 0.44248,8.752615 0.02031,0.02031 0.112173,-1.443744 0.204178,-3.253411 0.092,-1.809672 0.195777,-3.261809 0.230618,-3.226968 0.06644,0.06644 0.393638,4.955543 0.404796,6.048632 0.01135,1.113309 0.112689,0.578414 0.266749,-1.408222 0.221788,-2.859962 0.31767,-2.911984 0.514021,-0.27888 0.09419,1.263147 0.210826,2.219888 0.259191,2.126091 0.04836,-0.0938 0.166138,-0.779378 0.261723,-1.523511 l 0.173793,-1.352966 0.210207,1.513819 c 0.115616,0.832598 0.239657,1.543264 0.275647,1.579254 0.03599,0.03599 0.138729,-0.262049 0.228299,-0.662306 0.176053,-0.786673 0.317315,-0.752884 0.463232,0.11079 0.135388,0.801376 0.27738,0.669138 0.446104,-0.415467 0.08787,-0.564817 0.202566,-1.000484 0.254885,-0.968146 0.05232,0.03234 0.166308,0.500025 0.253307,1.039313 0.08699,0.539288 0.178084,0.960613 0.20242,0.936282 0.02435,-0.02435 0.110902,-0.797319 0.192378,-1.717749 0.223945,-2.529981 0.316574,-2.593063 0.511957,-0.348659 0.09405,1.08031 0.193318,1.941875 0.220605,1.914593 0.02727,-0.02727 0.135173,-1.260186 0.239749,-2.739783 0.10458,-1.479593 0.206486,-2.777147 0.226463,-2.883451 0.01997,-0.106304 0.113176,0.966408 0.20711,2.3838 0.09394,1.417397 0.212262,2.654474 0.262945,2.749056 0.05068,0.09459 0.168797,-1.398949 0.262487,-3.318967 0.09369,-1.920013 0.185117,-3.476004 0.203175,-3.457751 0.01807,0.01826 0.127635,1.62576 0.243509,3.572242 0.115873,1.946477 0.226595,3.554966 0.246041,3.574412 0.0375,0.0375 0.336532,-7.09097 0.352447,-8.402009 0.0077,-0.636738 0.02781,-0.704934 0.113751,-0.386562 0.0574,0.212608 0.179579,2.300044 0.271511,4.63875 0.09193,2.338698 0.184323,4.165206 0.205308,4.058901 0.02099,-0.106304 0.121952,-1.779457 0.224369,-3.718118 0.102418,-1.93866 0.209209,-3.547833 0.237314,-3.575938 0.0281,-0.0281 0.128814,1.585548 0.22379,3.585902 0.09764,2.056371 0.21405,3.498464 0.267849,3.318232 0.05234,-0.175328 0.163153,-1.478463 0.246256,-2.895855 0.0831,-1.417397 0.166868,-2.593043 0.186149,-2.612547 0.01928,-0.01948 0.106913,1.169173 0.194725,2.64151 0.216757,3.634275 0.304404,3.897663 0.514129,1.545046 0.09341,-1.047778 0.187625,-1.887257 0.209369,-1.865512 0.02172,0.02172 0.134687,0.907811 0.250985,1.969035 0.116292,1.061229 0.228411,1.946472 0.249153,1.967214 0.04675,0.04675 0.328258,-1.819125 0.328258,-2.175794 0,-0.143025 0.0495,-0.229454 0.11,-0.192062 0.0605,0.0374 0.184785,0.606159 0.276182,1.263931 0.0914,0.657772 0.185151,1.137962 0.208327,1.067093 0.02318,-0.07087 0.125556,-1.104475 0.227501,-2.296904 0.101945,-1.192428 0.211191,-2.193886 0.242764,-2.225459 0.03156,-0.03156 0.134087,0.932473 0.227807,2.142322 0.09372,1.209849 0.212681,2.225854 0.264353,2.257792 0.05167,0.03195 0.135729,-0.246406 0.186792,-0.618544 0.167467,-1.220416 0.268029,-1.275891 0.451534,-0.249075 0.0927,0.518712 0.208819,0.866528 0.258109,0.773115 0.04928,-0.0934 0.164078,-1.605771 0.255099,-3.36084 0.09102,-1.755063 0.181021,-3.175501 0.199995,-3.156522 0.01899,0.01899 0.131244,1.483934 0.249474,3.255453 0.201212,3.014806 0.32405,4.077691 0.318893,2.759225 -0.0069,-1.771739 0.323923,-9.89553 0.394919,-9.696782 0.04651,0.130206 0.158239,2.440147 0.248287,5.133199 0.09005,2.69305 0.185608,4.920618 0.212359,4.950145 0.02674,0.02951 0.04957,-0.20241 0.05071,-0.515415 0.0049,-1.28177 0.384415,-12.273276 0.42545,-12.314311 0.0244,-0.0244 0.122005,2.682501 0.21687,6.015372 0.09486,3.332873 0.21235,6.014522 0.26108,5.959227 0.04873,-0.0553 0.160001,-1.898054 0.247268,-4.095018 0.08727,-2.196962 0.182516,-4.018638 0.211663,-4.048166 0.02912,-0.02951 0.05323,0.231402 0.05351,0.579841 9.74e-4,0.965284 0.381,8.467112 0.431717,8.517829 0.02445,0.02445 0.119887,-1.204087 0.212039,-2.73013 0.09215,-1.526044 0.184887,-2.757282 0.206077,-2.736087 0.02118,0.02119 0.131507,1.283309 0.245135,2.804706 0.113634,1.521392 0.223551,2.824157 0.244269,2.895027 0.02075,0.07087 0.114023,-0.465487 0.207348,-1.191903 0.09332,-0.726416 0.208907,-1.320755 0.256858,-1.320755 0.04797,0 0.161647,0.584336 0.252664,1.298523 0.09102,0.714187 0.206584,1.250538 0.256823,1.191898 0.05024,-0.05864 0.168364,-0.36755 0.262507,-0.686462 l 0.171164,-0.579841 0.215374,0.708694 c 0.20563,0.676624 0.219013,0.6912 0.295711,0.322136 0.04417,-0.212608 0.153169,-1.053383 0.242189,-1.868386 l 0.161862,-1.481818 0.156398,1.095256 c 0.08602,0.602394 0.160771,1.309281 0.166113,1.570858 0.0054,0.261581 0.05855,0.505782 0.118231,0.542668 0.05969,0.03687 0.184922,-1.670627 0.278301,-3.794472 0.09338,-2.12385 0.187283,-3.844046 0.208673,-3.822656 0.03925,0.03925 0.435341,6.8833 0.435341,7.521937 0,0.189193 0.02304,0.319833 0.05121,0.290305 0.02815,-0.02951 0.124996,-2.242602 0.215185,-4.917934 0.09019,-2.675335 0.202785,-4.864244 0.250214,-4.864244 0.04744,0 0.16213,2.175487 0.25489,4.834424 0.09276,2.65893 0.185541,4.817524 0.20619,4.796874 0.02065,-0.02065 0.129398,-2.873987 0.241658,-6.340753 0.112265,-3.466769 0.221944,-6.321038 0.243733,-6.342827 0.02177,-0.02177 0.115104,2.613035 0.207367,5.855162 0.09227,3.242123 0.207359,5.96996 0.255757,6.061854 0.04841,0.09189 0.162432,-1.531668 0.2534,-3.607918 0.09097,-2.076247 0.188623,-3.799154 0.217011,-3.828681 0.02839,-0.02951 0.05161,0.176862 0.05161,0.458644 0,0.812792 0.38869,7.951215 0.435497,7.998022 0.02323,0.02323 0.117174,-0.945872 0.20877,-2.153553 0.0916,-1.207682 0.187951,-2.174377 0.214113,-2.14821 0.0411,0.0411 0.404923,3.551854 0.442968,4.274305 0.01982,0.376579 0.214503,-0.516126 0.316112,-1.449612 0.04821,-0.442934 0.128575,-0.805336 0.178571,-0.805336 0.05,0 0.168363,0.564174 0.263038,1.253724 0.180246,1.312831 0.22564,1.326769 0.533015,0.163668 l 0.153237,-0.579841 0.218661,0.837551 0.218662,0.837551 0.08249,-0.708698 c 0.04539,-0.389782 0.147671,-1.810398 0.227335,-3.156925 0.134658,-2.276094 0.238069,-3.15511 0.248866,-2.115352 0.0081,0.784569 0.359037,5.421131 0.414463,5.476552 0.02956,0.02956 0.130932,-2.265754 0.225236,-5.100728 0.0943,-2.834981 0.189753,-5.136218 0.212107,-5.113865 0.04544,0.04544 0.432165,8.933403 0.432165,9.931812 0,1.387577 0.111525,0.386499 0.263997,-2.369721 0.08821,-1.59457 0.200219,-2.944657 0.2489,-3.000201 0.0487,-0.05554 0.165685,1.263727 0.259999,2.931709 0.09431,1.667981 0.197053,3.007116 0.228319,2.97585 0.03127,-0.03127 0.139411,-0.767573 0.240333,-1.636253 0.100923,-0.868676 0.202649,-1.598569 0.22606,-1.621979 0.02342,-0.02343 0.118776,0.698281 0.211911,1.60376 0.218808,2.127191 0.308213,1.762032 0.511826,-2.090437 0.08615,-1.630004 0.179189,-2.987808 0.206759,-3.017335 0.02757,-0.02951 0.05172,0.144422 0.05366,0.386562 0.0063,0.789675 0.368154,6.073489 0.419377,6.124712 0.02742,0.02742 0.127036,-2.443604 0.221355,-5.491176 0.09432,-3.047579 0.192051,-5.520482 0.217186,-5.495348 0.05282,0.05282 0.421257,9.113566 0.424748,10.445493 0.0039,1.566694 0.106227,0.858312 0.267874,-1.858148 0.08643,-1.452554 0.197228,-2.717795 0.246202,-2.811637 0.04898,-0.09385 0.166859,1.117912 0.261956,2.692792 0.0951,1.574885 0.212453,2.753371 0.260783,2.618859 0.04831,-0.134511 0.157236,-0.793564 0.242009,-1.464558 0.08477,-0.670995 0.169362,-1.235222 0.187975,-1.253831 0.0186,-0.0186 0.109835,0.58795 0.202717,1.347916 0.218978,1.791711 0.266637,1.893106 0.525929,1.118866 l 0.213402,-0.63723 0.165276,0.515414 c 0.09091,0.283483 0.20842,0.562665 0.261148,0.620409 0.05272,0.05774 0.173229,-0.458488 0.267781,-1.147185 0.188467,-1.372709 0.248038,-1.336637 0.511393,0.309698 0.08293,0.518434 0.168134,0.924326 0.189343,0.901977 0.02123,-0.02235 0.111053,-1.026359 0.199649,-2.231148 0.0886,-1.204784 0.200969,-2.268058 0.249713,-2.362834 0.04874,-0.09477 0.165008,0.877096 0.258363,2.159703 0.09335,1.282608 0.188413,2.313335 0.211244,2.290499 0.02284,-0.02284 0.132038,-1.806476 0.242676,-3.963657 0.110638,-2.157181 0.217449,-3.977822 0.237353,-4.045867 0.01992,-0.06805 0.110843,1.497529 0.202079,3.479063 0.213621,4.639658 0.295891,5.064894 0.510082,2.636484 0.09064,-1.027552 0.181985,-1.88547 0.203004,-1.906489 0.03964,-0.03964 0.09204,0.374981 0.342698,2.711717 l 0.148581,1.385181 h 0.819882 0.819887 v 0.386563 0.386564 h -0.825463 -0.825459 l -0.07587,0.61205 c -0.04174,0.33664 -0.140209,1.24989 -0.218841,2.02946 -0.07864,0.77957 -0.159052,1.4347 -0.178698,1.45585 -0.01963,0.0211 -0.10927,-0.74715 -0.199162,-1.70732 -0.08989,-0.96017 -0.203467,-1.74577 -0.252392,-1.74577 -0.04892,0 -0.165451,1.73993 -0.258951,3.8665 -0.0935,2.12658 -0.185097,3.85141 -0.20355,3.83296 -0.01846,-0.0185 -0.130796,-1.83086 -0.249655,-4.02757 -0.200774,-3.71063 -0.303561,-4.826741 -0.331238,-3.59673 -0.02873,1.27713 -0.335738,4.21191 -0.409992,3.91932 -0.04495,-0.17718 -0.159364,-1.27888 -0.254218,-2.44823 l -0.172469,-2.12609 -0.164692,0.9664 c -0.287743,1.68846 -0.341002,1.72971 -0.530073,0.41062 -0.094,-0.65582 -0.209102,-1.216 -0.255782,-1.24485 -0.04666,-0.0288 -0.160751,0.21954 -0.253492,0.55196 l -0.168621,0.60441 -0.172382,-0.38656 c -0.09481,-0.21261 -0.174996,-0.49146 -0.178191,-0.61967 -0.0034,-0.1282 -0.05588,-0.20215 -0.117086,-0.16432 -0.0612,0.0378 -0.187264,0.72256 -0.280137,1.52164 -0.186826,1.60745 -0.230014,1.56812 -0.527078,-0.47994 l -0.168208,-1.15969 -0.153315,2.06166 c -0.08432,1.13392 -0.15873,2.42749 -0.165349,2.87461 -0.02425,1.63872 -0.231382,0.60938 -0.402273,-1.99916 -0.09654,-1.47367 -0.191969,-2.59243 -0.212058,-2.48612 -0.02006,0.1063 -0.125273,2.62434 -0.233749,5.59563 -0.108471,2.97129 -0.216304,5.42143 -0.239622,5.44475 -0.02333,0.0233 -0.119181,-2.30867 -0.213027,-5.18221 -0.09384,-2.87353 -0.208653,-5.24811 -0.255138,-5.27684 -0.04646,-0.0287 -0.158127,1.29282 -0.248092,2.93678 -0.08996,1.64396 -0.17917,3.00488 -0.198227,3.02428 -0.01904,0.0194 -0.108909,-1.25627 -0.199668,-2.83479 -0.238979,-4.15638 -0.295092,-4.414051 -0.512799,-2.35464 -0.197355,1.86692 -0.259001,1.81676 -0.522267,-0.42499 -0.08571,-0.72983 -0.171817,-1.30968 -0.191346,-1.28854 -0.01953,0.0211 -0.109391,1.38657 -0.199692,3.03429 -0.0903,1.64772 -0.202104,2.99585 -0.248447,2.99585 -0.04636,0 -0.160425,-1.30644 -0.253512,-2.90321 -0.09309,-1.59677 -0.185535,-2.88693 -0.205434,-2.86701 -0.01992,0.0199 -0.129457,2.35221 -0.243446,5.18285 -0.113994,2.83066 -0.225718,5.1651 -0.248271,5.18765 -0.02255,0.0226 -0.118017,-2.16567 -0.212131,-4.86274 -0.09411,-2.69706 -0.209321,-4.92737 -0.25602,-4.95623 -0.0467,-0.0289 -0.157961,1.17703 -0.247249,2.67975 -0.08928,1.50272 -0.18611,2.75639 -0.21517,2.78592 -0.02907,0.0295 -0.05329,-0.14443 -0.05385,-0.38657 -4.87e-4,-0.24213 -0.08672,-1.59993 -0.191457,-3.01733 -0.104741,-1.41739 -0.196864,-2.66406 -0.204719,-2.77036 -0.0078,-0.10631 -0.115786,0.18361 -0.239841,0.64427 l -0.225553,0.83755 -0.153237,-0.57985 c -0.308807,-1.1685 -0.358121,-1.15917 -0.531959,0.10069 -0.09076,0.65778 -0.204572,1.2204 -0.252917,1.25027 -0.04836,0.0299 -0.163435,-0.49586 -0.255757,-1.1683 -0.09233,-0.67245 -0.18462,-1.20587 -0.205099,-1.18539 -0.02045,0.0204 -0.13063,1.01972 -0.24477,2.22053 -0.11415,1.20081 -0.225256,2.20102 -0.246913,2.22268 -0.02167,0.0217 -0.114681,-0.89039 -0.20672,-2.02676 -0.09204,-1.13637 -0.195953,-2.03752 -0.23092,-2.00255 -0.06528,0.0653 -0.404435,6.15531 -0.412524,7.40737 -0.0099,1.53441 -0.115558,0.4191 -0.261407,-2.75963 -0.08454,-1.84261 -0.194939,-3.61114 -0.24532,-3.93005 -0.0528,-0.33419 -0.166099,2.08124 -0.26744,5.70151 -0.09671,3.45475 -0.193581,6.26361 -0.215272,6.24192 -0.04261,-0.0426 -0.432239,-10.91113 -0.432375,-12.06155 -4.9e-5,-0.38387 -0.02328,-0.6738 -0.05158,-0.64427 -0.02834,0.0295 -0.123871,2.17012 -0.212331,4.75687 -0.08846,2.58674 -0.200282,4.77962 -0.248491,4.87306 -0.04821,0.0934 -0.164696,-2.03805 -0.258859,-4.73666 -0.09417,-2.6986 -0.191272,-4.88649 -0.215788,-4.86197 -0.0245,0.0245 -0.134356,1.74825 -0.244083,3.83052 -0.109728,2.08227 -0.215978,3.80242 -0.236116,3.82255 -0.02011,0.0202 -0.112436,-1.60155 -0.205103,-3.60375 -0.09267,-2.0022 -0.214518,-3.75633 -0.270777,-3.89807 -0.08942,-0.22527 -0.103318,-0.21369 -0.110458,0.092 -0.01159,0.49544 -0.295979,2.94913 -0.336926,2.90678 -0.0187,-0.0193 -0.09885,-0.615 -0.178123,-1.3237 -0.07928,-0.7087 -0.181528,-1.52048 -0.227233,-1.80396 l -0.0831,-0.51541 -0.223177,0.70869 c -0.127279,0.40419 -0.252016,0.62565 -0.2903,0.51542 -0.03692,-0.1063 -0.140263,-0.42522 -0.229648,-0.7087 l -0.16252,-0.51541 -0.09675,0.45099 c -0.05321,0.24804 -0.136284,0.8142 -0.184605,1.25811 -0.04831,0.44393 -0.129909,0.83312 -0.181308,0.86489 -0.0514,0.0318 -0.169936,-0.52014 -0.263422,-1.22646 -0.09349,-0.70632 -0.187347,-1.26684 -0.208581,-1.24561 -0.02123,0.0212 -0.130708,1.30972 -0.243275,2.86331 -0.112567,1.55358 -0.221218,2.84125 -0.241448,2.86148 -0.02021,0.0202 -0.114915,-1.16654 -0.210407,-2.63726 -0.109387,-1.68465 -0.20748,-2.53101 -0.265122,-2.28747 -0.05032,0.2126 -0.162096,2.21307 -0.248398,4.44546 -0.0863,2.2324 -0.179463,4.08307 -0.207032,4.11259 -0.02757,0.0295 -0.05062,-0.17341 -0.05122,-0.45098 -0.0019,-0.9218 -0.378931,-8.33678 -0.426175,-8.38403 -0.02552,-0.0255 -0.133669,2.80958 -0.240285,6.30026 -0.10662,3.49068 -0.204465,6.28871 -0.217434,6.21783 z"
         id="path24" />
      <text
         xml:space="preserve"
         id="text560"
         style="font-style:normal;font-weight:normal;font-size:10.5833px;line-height:1.25;font-family:sans-serif;white-space:pre;shape-inside:url(#rect562);fill:#ffffff;fill-opacity:1;stroke:none;"
         transform="translate(61.203548,-38.817473)"><tspan
           x="33.332031"
           y="141.47423"><tspan
             style="font-style:normal;font-variant:normal;font-weight:bold;font-stretch:normal;font-family:'Zilla Slab';-inkscape-font-specification:'Zilla Slab Bold';fill:#ffffff">-&gt;
</tspan></tspan><tspan
           x="33.332031"
           y="154.99158"><tspan
             style="font-style:normal;font-variant:normal;font-weight:bold;font-stretch:normal;font-family:'Zilla Slab';-inkscape-font-specification:'Zilla Slab Bold';fill:#ffffff">
</tspan></tspan><tspan
           x="33.332031"
           y="168.50893"><tspan
             style="font-style:normal;font-variant:normal;font-weight:bold;font-stretch:normal;font-family:'Zilla Slab';-inkscape-font-specification:'Zilla Slab Bold';fill:#ffffff">
</tspan></tspan><tspan
           style="visibility:hidden"
           x="33.332031"
           y="193.28088"><tspan
             dx="0 3.0592351"
             style="font-style:normal;font-variant:normal;font-weight:bold;font-stretch:normal;font-family:'Zilla Slab';-inkscape-font-specification:'Zilla Slab Bold';fill:#ffffff">(/</tspan><tspan
             dx="3.989408"
             style="font-style:normal;font-variant:normal;font-weight:bold;font-stretch:normal;font-family:'Zilla Slab';-inkscape-font-specification:'Zilla Slab Bold';fill:#ffffff">ˈ</tspan><tspan
             dx="3.2452698"
             style="font-style:normal;font-variant:normal;font-weight:bold;font-stretch:normal;font-family:'Zilla Slab';-inkscape-font-specification:'Zilla Slab Bold';fill:#ffffff">k</tspan><tspan
             dx="5.8497524 6.2838345"
             style="font-style:normal;font-variant:normal;font-weight:bold;font-stretch:normal;font-family:'Zilla Slab';-inkscape-font-specification:'Zilla Slab Bold';fill:#ffffff">ɔː</tspan><tspan
             dx="3.5759983"
             style="font-style:normal;font-variant:normal;font-weight:bold;font-stretch:normal;font-family:'Zilla Slab';-inkscape-font-specification:'Zilla Slab Bold';fill:#ffffff">r</tspan><tspan
             dx="4.6715336"
             style="font-style:normal;font-variant:normal;font-weight:bold;font-stretch:normal;font-family:'Zilla Slab';-inkscape-font-specification:'Zilla Slab Bold';fill:#ffffff">ɡ</tspan><tspan
             dx="7.5860767 3.1625862 3.9894104 3.1625862 5.2089691 3.1625862"
             style="font-style:normal;font-variant:normal;font-weight:bold;font-stretch:normal;font-family:'Zilla Slab';-inkscape-font-specification:'Zilla Slab Bold';fill:#ffffff">i/[5] </tspan></tspan></text>
      <text
         xml:space="preserve"
         id="text560-2"
         style="font-style:normal;font-weight:normal;font-size:10.5833px;line-height:1.25;font-family:sans-serif;white-space:pre;shape-inside:url(#rect562-5);fill:#ffffff;fill-opacity:1;stroke:none;"
         transform="translate(88.59708,-39.336055)"><tspan
           x="33.332031"
           y="141.47423"><tspan
             style="font-style:normal;font-variant:normal;font-weight:300;font-stretch:normal;font-family:'Zilla Slab';-inkscape-font-specification:'Zilla Slab Light';fill:#ffffff">k + </tspan><tspan
             style="font-style:normal;font-variant:normal;font-weight:300;font-stretch:normal;font-family:'Zilla Slab';-inkscape-font-specification:'Zilla Slab Light';fill:#ffffff">ɔ</tspan><tspan
             style="font-style:normal;font-variant:normal;font-weight:300;font-stretch:normal;font-family:'Zilla Slab';-inkscape-font-specification:'Zilla Slab Light';fill:#ffffff">ː </tspan><tspan
             style="font-style:normal;font-variant:normal;font-weight:300;font-stretch:normal;font-family:'Zilla Slab';-inkscape-font-specification:'Zilla Slab Light';fill:#ffffff">+ r + g + i</tspan><tspan
             style="font-style:normal;font-variant:normal;font-weight:300;font-stretch:normal;font-family:'Zilla Slab';-inkscape-font-specification:'Zilla Slab Light';fill:#ffffff">ː</tspan><tspan
             style="fill:#ffffff">
</tspan></tspan><tspan
           x="33.332031"
           y="154.70335"><tspan
             style="fill:#ffffff">
</tspan></tspan><tspan
           x="33.332031"
           y="167.93248"><tspan
             style="fill:#ffffff">
</tspan></tspan><tspan
           style="visibility:hidden"
           x="33.332031"
           y="192.99265"><tspan
             dx="0 4.1341014 3.5759978 2.9145412 6.1391401 5.8084126 3.5759983 4.3614769 6.7179165 2.9352112 3.5759964 4.1341019 6.7385864 4.1341019"
             style="fill:#ffffff">(/ˈkɔːrɡi/[5] </tspan></tspan></text>
    </g>
  </g>
</svg>
