<?xml version="1.0" encoding="UTF-8" standalone="no"?>
<svg
   xmlns:dc="http://purl.org/dc/elements/1.1/"
   xmlns:cc="http://creativecommons.org/ns#"
   xmlns:rdf="http://www.w3.org/1999/02/22-rdf-syntax-ns#"
   xmlns:svg="http://www.w3.org/2000/svg"
   xmlns="http://www.w3.org/2000/svg"
   xmlns:sodipodi="http://sodipodi.sourceforge.net/DTD/sodipodi-0.dtd"
   xmlns:inkscape="http://www.inkscape.org/namespaces/inkscape"
   version="1.1"
   id="svg44"
   width="717.71332"
   height="620.75891"
   viewBox="0 0 717.71331 620.7589"
   sodipodi:docname="indigenous-languages.svg"
   inkscape:version="1.0.1 (0767f8302a, 2020-10-17)">
  <metadata
     id="metadata50">
    <rdf:RDF>
      <cc:Work
         rdf:about="">
        <dc:format>image/svg+xml</dc:format>
        <dc:type
           rdf:resource="http://purl.org/dc/dcmitype/StillImage" />
        <dc:title></dc:title>
      </cc:Work>
    </rdf:RDF>
  </metadata>
  <defs
     id="defs48" />
  <sodipodi:namedview
     pagecolor="#ffffff"
     bordercolor="#666666"
     borderopacity="1"
     objecttolerance="10"
     gridtolerance="10"
     guidetolerance="10"
     inkscape:pageopacity="0"
     inkscape:pageshadow="2"
     inkscape:window-width="1920"
     inkscape:window-height="1016"
     id="namedview46"
     showgrid="false"
     inkscape:zoom="0.41339264"
     inkscape:cx="217.63139"
     inkscape:cy="195.43726"
     inkscape:window-x="0"
     inkscape:window-y="27"
     inkscape:window-maximized="1"
     inkscape:current-layer="g52"
     fit-margin-top="0"
     fit-margin-left="0"
     fit-margin-right="0"
     fit-margin-bottom="0"
     inkscape:document-rotation="0" />
  <g
     inkscape:groupmode="layer"
     inkscape:label="Image"
     id="g52"
     transform="translate(-529.38679,-41.000001)">
    <g
       id="g429"
       transform="matrix(1.8698707,0,0,1.8698707,-460.49804,-35.664698)">
      <path
         style="fill:#3b83b7;fill-opacity:1"
         d="M 709.23472,334.96547 C 647.70843,328.74346 599.28024,280.4253 593.75688,219.75 588.3667,160.53766 621.54783,107.10745 676.48926,86.529479 691.11104,81.052982 703.33431,79 721.31912,79 c 22.41284,0 36.75571,3.121313 55.18088,12.008532 12.2299,5.898983 17.64964,9.398698 28.02089,18.094048 17.46037,14.63893 31.19311,34.89179 38.4425,56.69452 22.43762,67.48165 -13.70257,140.69308 -80.49127,163.05616 -15.41313,5.16083 -37.5327,7.70039 -53.2374,6.11221 z"
         id="path738"
         mask="none" />
      <g
         id="g366">
        <g
           id="g305">
          <g
             id="g245">
            <path
               id="path742"
               style="fill:#ffffff"
               d="m 708.00043,308.6365 c -55.2522,-5.33304 -98.36303,-63.14663 -88.3755,-117.61355 4.01884,-24.03924 16.35246,-46.64962 35.35242,-62.09178 27.02366,-22.92696 66.49065,-31.997113 99.97361,-18.78677 50.66769,15.67214 81.76079,76.12445 64.64557,126.40329 -11.89579,42.57693 -54.24684,73.6818 -98.30809,73.1104 -4.44597,-0.028 -8.89027,-0.36703 -13.28801,-1.02159 z" />
            <path
               style="fill:#000000"
               d="m 729.19716,61.956685 c 2.81091,-2.810906 3.00854,-3.462714 2.58789,-8.535191 -0.25049,-3.020532 -1.04561,-6.03854 -1.76695,-6.706685 -1.04914,-0.971784 -1.14941,-0.914731 -0.50124,0.285191 0.44565,0.825 -0.36685,0.2625 -1.80555,-1.25 C 725.8168,43.758304 724.11722,43 721.54775,43 719.51137,43 718,43.497009 718,44.166667 c 0,0.641666 -0.29301,0.873661 -0.65112,0.515543 -0.35812,-0.358118 -1.29149,0.129382 -2.07416,1.083334 -0.84788,1.033437 -1.11339,1.128198 -0.65692,0.234456 0.65787,-1.288053 0.5286,-1.307367 -0.91483,-0.136693 -0.92452,0.749819 -1.4581,1.723884 -1.18573,2.16459 0.27237,0.440705 -0.0701,0.989717 -0.76101,1.220026 -0.76775,0.255916 -1.25623,2.22373 -1.25623,5.060623 0,3.979164 0.47281,5.073724 3.31172,7.666667 C 716.47311,64.406015 718.0101,65 721.63864,65 c 3.69784,0 5.06612,-0.550915 7.55852,-3.043315 z"
               id="path848" />
            <path
               style="fill:#bd7126;fill-opacity:1"
               d="M 715.3341,65.936316 C 702.75652,59.710461 707.44473,41 721.58231,41 c 8.44909,0 14.73869,8.380467 12.50771,16.665687 -1.18358,4.395473 -4.13501,7.6498 -8.40512,9.267701 -3.97321,1.505409 -5.61468,1.347289 -10.3508,-0.997072 z"
               id="path846" />
            <path
               style="fill:#000000"
               d="m 774.17276,68.981091 c 4.52642,-4.526422 4.58255,-10.378891 0.14214,-14.819727 -4.06728,-4.067673 -7.99793,-4.88014 -12.7349,-2.632303 -2.00833,0.953017 -3.41742,1.966854 -3.1313,2.252972 0.28612,0.286117 -0.26029,1.091137 -1.21424,1.788932 -1.2413,0.907979 -1.70705,2.577285 -1.63805,5.870938 0.21905,10.456196 11.20194,14.913591 18.57635,7.539188 z"
               id="path844" />
            <path
               style="fill:#bd7126;fill-opacity:1"
               d="m 761.5,74.093967 c -6.76415,-2.99708 -10.18893,-11.803284 -7.07992,-18.204724 4.79582,-9.87454 18.77178,-10.313971 23.65415,-0.743732 3.20185,6.276139 2.12548,11.543168 -3.41695,16.720308 -2.75975,2.577856 -9.71117,3.75506 -13.15728,2.228148 z"
               id="path842" />
            <path
               style="fill:#000000"
               d="m 681.18498,70.734942 c 0.43142,-0.679218 0.79129,-0.827698 0.79971,-0.329954 0.008,0.497743 0.9047,0.100102 1.99173,-0.883647 1.08703,-0.983749 1.73547,-2.178494 1.44098,-2.654988 C 685.12291,66.389859 685.35852,66 685.94098,66 686.52673,66 687,64.023242 687,61.576725 c 0,-11.352939 -14.2804,-15.723714 -20.11453,-6.156416 -3.5569,5.832907 -1.44735,13.527194 4.42924,16.155016 3.4773,1.554934 8.62735,1.116444 9.87027,-0.840383 z"
               id="path840" />
            <path
               style="fill:#bd7126;fill-opacity:1"
               d="M 670.12149,73.29009 C 658.01818,67.327574 662.51074,48 676,48 c 7.55345,0 13,5.656034 13,13.5 0,10.498347 -9.48115,16.419557 -18.87851,11.79009 z"
               id="path838" />
            <path
               style="fill:#000000"
               d="M 809.53212,90.551027 C 811.43945,89.754091 813,88.827534 813,88.49201 c 0,-0.335524 -0.5625,-0.325115 -1.25,0.02313 -0.6875,0.348246 -0.48019,6.31e-4 0.46069,-0.772478 4.52508,-3.718211 4.22206,-11.108586 -0.64287,-15.678945 -3.5581,-3.342667 -10.85141,-3.124263 -14.56778,0.436243 -5.46453,5.235351 -4.41565,14.543529 1.99996,17.748486 4.25803,2.127124 6.04266,2.178396 10.53212,0.302581 z"
               id="path836" />
            <path
               style="fill:#bd7126;fill-opacity:1"
               d="m 798.06166,92.172735 c -7.68052,-4.119107 -9.19756,-14.342096 -3.06692,-20.667304 10.31471,-10.642082 27.53993,1.112062 21.44312,14.63236 -3.14676,6.978277 -11.50129,9.721996 -18.3762,6.034944 z"
               id="path834" />
            <path
               style="fill:#000000"
               d="m 641.65871,91 c 0.82233,0 2.81052,-1.315385 4.41821,-2.923077 C 648.45615,85.697694 649,84.302294 649,80.576923 649,78.022266 648.53208,76 647.94098,76 c -0.58246,0 -0.82133,-0.384588 -0.53082,-0.85464 0.29051,-0.470052 -0.59155,-1.906591 -1.96013,-3.192308 -3.5525,-3.337397 -11.3791,-3.307764 -14.96035,0.05664 -1.40174,1.316871 -2.32449,2.978409 -2.05054,3.692308 0.27395,0.713901 0.0622,1.298 -0.47052,1.298 C 627.43588,77 627,78.556789 627,80.459531 c 0,2.448484 0.80369,4.253834 2.75,6.177423 1.5125,1.49484 1.85,2.075551 0.75,1.290468 -1.84569,-1.31729 -1.89385,-1.292094 -0.62424,0.326574 1.5075,1.921946 6.84586,3.802375 8.95603,3.154743 C 639.56427,91.183933 640.83639,91 641.65871,91 Z"
               id="path832" />
            <path
               style="fill:#bd7126;fill-opacity:1"
               d="m 632.31632,92.056621 c -4.83748,-2.196287 -7.31806,-6.184501 -7.31258,-11.756961 0.0119,-12.054772 14.58981,-17.775623 22.71191,-8.912875 2.86136,3.122284 3.28435,4.276708 3.28435,8.963671 0,6.260467 -2.37124,10.071058 -7.63578,12.270724 -4.31961,1.804849 -6.02056,1.717928 -11.0479,-0.564559 z"
               id="path830" />
            <path
               style="fill:#000000"
               d="m 829.87244,117.25 c -1.24387,-1.58606 -1.2085,-1.62143 0.37756,-0.37756 1.66575,1.30637 2.19548,2.12756 1.37244,2.12756 -0.20765,0 -0.99515,-0.7875 -1.75,-1.75 z"
               id="path828" />
            <path
               style="fill:#000000"
               d="m 844.74236,119.43316 c 3.08385,-2.02062 4.54613,-6.02713 3.92742,-10.76078 -0.4621,-3.53544 -3.38806,-8.28744 -4.44936,-7.22613 -0.25218,0.25218 -1.11209,-0.19506 -1.9109,-0.99387 C 841.51071,99.653571 839.57143,99 838,99 c -1.57143,0 -3.51071,0.653571 -4.30952,1.45238 -0.79881,0.79881 -1.67965,1.22511 -1.95743,0.94734 -1.21564,-1.21564 -4.73208,5.10812 -4.71831,8.48514 0.0205,5.02542 1.91263,8.30696 5.99917,10.40437 3.82395,1.96264 7.87819,1.66672 11.72845,-0.85607 z"
               id="path826" />
            <path
               style="fill:#bd7126;fill-opacity:1"
               d="m 832.12149,122.29009 c -9.58878,-4.72377 -9.638,-18.86891 -0.0829,-23.81007 8.66603,-4.481382 18.96547,1.71472 18.95762,11.40484 -0.005,5.84157 -2.91202,10.76417 -7.48604,12.67532 -4.43915,1.85479 -7.20875,1.78911 -11.38873,-0.27009 z"
               id="path824" />
            <path
               style="fill:#000000"
               d="m 609,119.94098 c 0,-0.58246 0.38459,-0.82133 0.85464,-0.53082 0.47005,0.29051 1.93255,-0.61919 3.25,-2.02154 3.51998,-3.74685 3.39986,-11.33866 -0.23694,-14.97546 C 609.88072,99.426174 601,97.647784 601,100.03661 c 0,0.7132 -0.28086,1.01586 -0.62414,0.67258 -0.34328,-0.34328 -1.35578,0.16543 -2.25,1.13046 -0.98058,1.05824 -1.22898,1.14058 -0.62586,0.20748 0.86876,-1.34409 0.77258,-1.36888 -0.73288,-0.18889 -4.44711,3.48565 -3.92942,13.29573 0.90218,17.09627 2.78359,2.18957 11.3307,2.9337 11.3307,0.98647 z"
               id="path822" />
            <path
               style="fill:#bd7126;fill-opacity:1"
               d="m 601.5,123.26724 c -5.45563,-1.36599 -10.5,-7.77185 -10.5,-13.33399 0,-3.60012 3.17958,-9.07159 6.41996,-11.047572 3.98384,-2.429337 10.2291,-2.397048 14.28149,0.07384 9.73503,5.935792 7.45785,20.956962 -3.6446,24.041232 -1.95627,0.54345 -3.78185,0.93841 -4.05685,0.87767 -0.275,-0.0607 -1.4,-0.33577 -2.5,-0.61118 z"
               id="path820" />
            <path
               style="fill:#000000"
               d="m 906.33816,246.99806 c 0.13045,-1.92607 0.58678,-4.06759 1.01406,-4.75895 0.42728,-0.69135 0.50452,-2.11511 0.17165,-3.1639 -0.33287,-1.04879 -0.10046,-2.21886 0.51648,-2.60015 0.61694,-0.38129 0.85859,-1.74158 0.53701,-3.02287 -0.32159,-1.28129 -0.13084,-2.61012 0.42389,-2.95296 0.55472,-0.34284 1.0261,-2.50792 1.04751,-4.81129 0.0214,-2.30336 0.26775,-10.86346 0.54741,-19.02243 0.34258,-9.99447 0.15109,-15.26512 -0.5869,-16.15435 -0.60247,-0.72592 -0.80248,-2.48689 -0.44448,-3.91327 0.358,-1.42638 0.31279,-3.38192 -0.10045,-4.34565 -0.41325,-0.96373 -0.65286,-2.98974 -0.53248,-4.50224 0.12038,-1.5125 -0.22291,-2.75 -0.76287,-2.75 -0.53996,0 -0.74577,-0.9024 -0.45735,-2.00533 0.28843,-1.10293 -0.0174,-2.65821 -0.67971,-3.45619 -0.66226,-0.79798 -0.92113,-1.90874 -0.57526,-2.46837 1.04701,-1.6941 -3.5079,-16.73678 -5.06788,-16.73678 -0.76383,0 -1.38879,0.375 -1.38879,0.83334 0,0.45833 -0.3375,0.74417 -0.75,0.6352 -1.40674,-0.37161 -5.25,1.33006 -5.25,2.32453 0,0.5454 -0.43359,0.72366 -0.96353,0.39614 -0.52993,-0.32752 -1.87993,0.32092 -3,1.44099 -2.04791,2.04791 -2.68083,4.03476 -1.28647,4.03846 0.4125,0.001 0.84825,1.40031 0.96832,3.10937 0.12008,1.70906 0.67868,3.66207 1.24133,4.34002 0.56265,0.67795 0.75684,1.4988 0.43154,1.8241 -0.3253,0.3253 -0.23936,1.16117 0.19099,1.85749 0.43035,0.69632 0.90294,2.41376 1.05019,3.81653 0.14726,1.40278 0.4508,4.3505 0.67453,6.5505 1.57247,15.4622 1.72167,32.91232 0.37589,43.96256 -0.80129,6.57941 -1.23457,12.54191 -0.96285,13.25 0.27172,0.70809 -0.0566,1.28744 -0.72958,1.28744 -0.73109,0 -1.0132,0.80464 -0.70087,1.999 0.28751,1.09946 0.0843,2.26997 -0.45154,2.60115 -0.53587,0.33119 -0.73827,1.21722 -0.4498,1.96898 0.28848,0.75175 0.0635,1.65175 -0.5,2 -0.56347,0.34824 -0.78294,1.26265 -0.48771,2.03202 0.29524,0.76937 0.0706,1.39885 -0.49921,1.39885 -0.58093,0 -0.75717,0.87852 -0.40123,2 0.37832,1.19199 0.1797,2 -0.49163,2 -0.61952,0 -0.84375,0.45734 -0.49829,1.01631 0.34546,0.55897 1.04702,0.75742 1.55902,0.44098 C 889.58109,257.14086 890,257.38508 890,258 c 0,0.61492 0.45,0.83992 1,0.5 0.55,-0.33992 1,-0.1501 1,0.42182 0,0.57191 2.1375,2.13548 4.75,3.47458 l 4.75,2.43473 2.30049,-7.16556 c 1.26527,-3.94107 2.40722,-8.74144 2.53767,-10.66751 z"
               id="path818" />
            <path
               style="fill:#6a5337;fill-opacity:1"
               d="m 892.75,262.93791 c -4.27372,-2.1849 -7.75,-4.61154 -7.75,-5.40995 0,-0.7963 1.10508,-5.85336 2.45574,-11.23789 6.32621,-25.22016 6.1798,-57.67683 -0.37121,-82.29007 -1.55061,-5.82592 -1.72703,-7.74802 -0.79036,-8.61115 2.68802,-2.47697 15.58239,-8.6502 16.96221,-8.12071 3.0554,1.17247 8.58925,27.61421 9.59884,45.86506 1.28561,23.24074 -0.84349,44.28408 -6.53773,64.6168 -1.91632,6.84271 -3.0104,9.23699 -4.20399,9.20001 -0.88742,-0.0275 -5.101,-1.83294 -9.3635,-4.0121 z"
               id="path816" />
            <path
               style="fill:#000000"
               d="M 546.81217,261.97666 C 549.11548,260.86382 551,259.48727 551,258.91764 c 0,-0.56962 0.45,-0.75756 1,-0.41764 0.55,0.33992 1,0.11492 1,-0.5 0,-0.61492 0.37653,-0.88532 0.83674,-0.6009 0.46021,0.28443 0.71741,-0.70152 0.57155,-2.19098 -0.29173,-2.97897 -4.41171,-23.81449 -5.18236,-26.20812 -1.10956,-3.4463 -1.56819,-28.92569 -0.72001,-40 0.52451,-6.84833 2.95311,-19.93685 4.88468,-26.32523 1.37006,-4.53124 1.33945,-4.94472 -0.5023,-6.78647 -1.07869,-1.07869 -2.39484,-1.69328 -2.92477,-1.36576 C 549.43359,154.85006 549,154.6718 549,154.1264 c 0,-0.99447 -3.84326,-2.69614 -5.25,-2.32453 -0.4125,0.10897 -0.75,-0.27843 -0.75,-0.86089 0,-0.58246 -0.41157,-0.80465 -0.91459,-0.49377 -0.50302,0.31089 -1.1425,-5e-5 -1.42105,-0.69098 -0.29152,-0.72309 -0.60461,-0.40743 -0.73773,0.74377 -0.12719,1.1 -0.28711,2.45 -0.35538,3 -0.0683,0.55 -0.47628,1.5625 -0.9067,2.25 -0.43042,0.6875 -0.50447,1.7 -0.16455,2.25 0.33992,0.55 0.089,1 -0.55761,1 -0.68332,0 -0.95663,0.83755 -0.65264,2 0.28766,1.1 0.0829,2 -0.45494,2 -0.53787,0 -0.87883,1.0125 -0.75769,2.25 0.12114,1.2375 -0.0511,2.925 -0.38272,3.75 -3.4301,8.53307 -4.71494,43.75513 -2.24141,61.4452 0.91864,6.56986 1.96879,12.41986 2.33367,13 0.36488,0.58014 0.54062,1.80243 0.39053,2.71621 -0.15009,0.91378 0.17899,1.94069 0.73129,2.28203 0.55229,0.34133 0.76815,1.23568 0.47967,1.98743 -0.28847,0.75176 -0.0365,1.66844 0.55999,2.03708 0.59647,0.36863 0.84892,1.05139 0.56102,1.51723 -0.28791,0.46584 0.002,2.12225 0.64517,3.6809 0.64275,1.55866 1.07221,3.24268 0.95437,3.74228 -0.15836,0.67131 1.41139,2.31966 2.45347,2.57633 0.0342,0.008 1.94669,-0.89519 4.25,-2.00803 z"
               id="path814" />
            <path
               style="fill:#6a5337;fill-opacity:1"
               d="m 537.16465,260.07914 c -6.02736,-18.71437 -9.05562,-46.89807 -7.26788,-67.64162 C 531.83412,169.95788 536.89259,147 539.90833,147 c 0.877,0 5.12481,1.84986 9.43958,4.1108 8.99068,4.71113 8.58022,3.0624 4.82698,19.3892 -5.65032,24.57926 -4.79319,54.68628 2.29181,80.5 0.83026,3.025 1.51446,5.95 1.52045,6.5 0.0127,1.16439 -15.04783,9.5 -17.16428,9.5 -0.88655,0 -2.27553,-2.62777 -3.65822,-6.92086 z"
               id="path812" />
            <path
               style="fill:#000000"
               d="m 865.33186,270.58333 c 7.01255,-16.54543 10.94136,-32.27522 12.86378,-51.50267 1.91855,-19.18883 -1.10359,-42.92129 -8.05622,-63.26445 C 866.31506,144.62627 861.98589,135 860.77787,135 859.11093,135 847,141.35139 847,142.2256 c 0,0.46249 1.16418,3.13828 2.58706,5.94621 1.42289,2.80793 4.12922,9.81311 6.01408,15.56708 10.24075,31.26222 8.26493,70.36175 -5.02981,99.53514 -1.81114,3.97428 -3.39826,7.64796 -3.52694,8.16373 -0.25349,1.01609 11.38772,7.22891 13.54511,7.22891 0.724,0 2.85806,-3.6375 4.74236,-8.08334 z"
               id="path810" />
            <path
               style="fill:#d0471a;fill-opacity:1"
               d="m 852.5,277.92192 c -3.85,-2.12022 -7.42329,-4.01111 -7.94065,-4.20198 -0.51735,-0.19087 0.96429,-4.69058 3.29253,-9.99936 16.3508,-37.28241 16.22654,-78.44574 -0.3456,-114.48946 -2.09103,-4.54788 -3.62285,-8.42241 -3.40407,-8.61006 C 845.5795,139.35395 860.33597,132 861.40125,132 c 3.19422,0 12.99424,26.29885 16.76883,45 3.29133,16.3069 3.29856,43.38029 0.0159,59.77977 -3.77867,18.8777 -13.60578,44.52826 -17.18603,44.85866 -0.825,0.0761 -4.65,-1.5963 -8.5,-3.71651 z"
               id="path808" />
            <path
               style="fill:#000000"
               d="m 589.26071,275.5 c 3.154,-1.65 5.73561,-3.3157 5.73691,-3.70156 10e-4,-0.38586 -1.52857,-4.21086 -3.39972,-8.5 -15.78849,-36.19103 -15.67016,-78.12972 0.32064,-113.64166 1.6948,-3.76377 3.08146,-7.16935 3.08146,-7.56796 0,-0.39861 -3.17491,-2.38317 -7.05536,-4.41014 l -7.05536,-3.6854 -3.29182,7.25336 c -10.86496,23.94045 -16.11383,53.70043 -13.74352,77.92286 1.25738,12.8493 4.66128,29.38135 8.09803,39.3305 3.8889,11.25811 8.34327,20.21425 9.99903,20.10445 0.86634,-0.0574 4.15571,-1.45445 7.30971,-3.10445 z"
               id="path806" />
            <path
               style="fill:#d0471a;fill-opacity:1"
               d="m 579.25646,280.75 c -3.98168,-5.03535 -12.06013,-27.96431 -15.41424,-43.75 -3.22309,-15.16904 -3.22913,-44.77664 -0.0122,-60 3.91275,-18.5164 13.78574,-45 16.77584,-45 1.13219,0 15.95013,7.3551 17.27067,8.57255 0.20708,0.19091 -1.43073,4.52768 -3.63957,9.63728 -8.21503,19.00345 -11.10821,31.55462 -11.93819,51.79017 -0.88611,21.60437 2.8801,41.08485 11.94149,61.76655 2.233,5.09661 3.87996,9.40728 3.65989,9.57927 -1.46217,1.14276 -15.98352,8.65418 -16.7306,8.65418 -0.50856,0 -1.36945,-0.5625 -1.91309,-1.25 z"
               id="path804" />
            <path
               style="fill:#000000"
               d="m 842.45434,313.58353 c 4.89771,-2.0464 6.91454,-5.61851 6.29177,-11.1437 -0.45706,-4.05504 -3.35164,-9.16764 -4.52569,-7.99358 -0.25218,0.25218 -1.11209,-0.19506 -1.9109,-0.99387 -2.18114,-2.18115 -6.91292,-1.78039 -9.41763,0.79762 -1.20231,1.2375 -1.83291,1.575 -1.40133,0.75 0.43158,-0.825 -0.22684,-0.5379 -1.46315,0.63799 -3.06644,2.9166 -3.91148,10.3638 -1.57978,13.92243 1.6137,2.46281 6.54405,5.31525 9.33449,5.40044 0.70516,0.0215 2.80766,-0.59827 4.67222,-1.37733 z"
               id="path802" />
            <path
               style="fill:#bd7126;fill-opacity:1"
               d="m 832.39626,315.57063 c -7.07642,-3.08043 -9.98388,-14.01128 -5.30796,-19.95575 8.03753,-10.21807 23.91822,-5.38904 23.90796,7.26998 -0.009,10.60902 -9.11036,16.8167 -18.6,12.68577 z"
               id="path800" />
            <path
               style="fill:#000000"
               d="m 610.75,313.01096 c 1.7875,-1.08986 3.25,-2.26828 3.25,-2.61871 0,-0.35043 -0.7875,-0.0522 -1.75,0.66273 -0.9625,0.71492 -0.46198,0.03 1.11228,-1.52214 2.46001,-2.4254 2.78775,-3.37765 2.33197,-6.77571 -0.51857,-3.86625 -4.22703,-9.16392 -5.7542,-8.22008 -0.42308,0.26148 -0.93516,-0.0224 -1.13797,-0.63082 -0.56537,-1.69611 -7.53143,-1.31359 -10.40851,0.57155 -5.43137,3.55877 -6.50344,11.9821 -2.01845,15.859 1.16868,1.01022 1.56238,1.54617 0.87488,1.19098 -2.55477,-1.31988 -1.14602,0.46477 1.5,1.90027 3.81803,2.07131 8.16665,1.92017 12,-0.41707 z"
               id="path798" />
            <path
               style="fill:#bd7126;fill-opacity:1"
               d="m 597.40059,314.9803 c -6.70525,-4.29652 -8.02174,-13.71179 -2.7871,-19.9328 7.38638,-8.77822 21.81744,-4.27587 23.11215,7.21078 1.25471,11.13167 -10.9171,18.75035 -20.32505,12.72202 z"
               id="path796" />
            <path
               style="fill:#000000"
               d="m 726.53212,134.55103 c 1.90733,-0.79694 3.46788,-1.7235 3.46788,-2.05902 0,-0.33552 -0.5625,-0.32512 -1.25,0.0231 -0.6875,0.34825 -0.56854,0.0373 0.26436,-0.69098 1.68378,-1.4723 2.47845,-6.69608 1.49164,-9.80527 -0.57517,-1.81217 -1.47861,-2.01563 -8.82339,-1.98709 -9.99885,0.0389 -12.2205,1.26612 -11.4037,6.29948 0.52491,3.23465 4.07641,7.85106 6.91427,8.9875 2.42455,0.97093 5.85207,0.68915 9.33894,-0.76775 z"
               id="path782" />
            <path
               style="fill:#d0471a;fill-opacity:1"
               d="m 713.42031,136.11453 c -3.92531,-2.39365 -5.62421,-6.52421 -5.23107,-12.71833 L 708.5,118.5 h 12.5 12.5 l 0.30059,5.20183 c 0.36145,6.25514 -1.61434,10.63337 -5.76786,12.78124 -4.02685,2.08237 -10.87652,1.90961 -14.61242,-0.36854 z"
               id="path780" />
            <path
               style="fill:#000000"
               d="M 733.13107,166.55975 C 750.89504,162.79449 764,150.11002 764,136.68128 v -5.3852 l -6.75,-3.0259 c -10.69674,-4.79516 -10.25,-4.78522 -10.25,-0.2279 0,8.023 -5.97461,16.45193 -14.93235,21.06645 -6.01417,3.09816 -15.75668,3.17646 -22.06765,0.17736 -8.27591,-3.93288 -15,-12.97483 -15,-20.17064 0,-3.81019 -1.47677,-4.24158 -7,-2.04481 -10.75186,4.27638 -10.23322,3.70707 -9.50122,10.42936 1.55658,14.29489 13.00166,25.0036 31.00122,29.00663 7.90742,1.75857 15.5044,1.77565 23.63107,0.0531 z"
               id="path778" />
            <path
               style="fill:#003e5f;fill-opacity:1"
               d="m 706.75415,168.91604 c -6.12604,-1.44418 -15.67304,-6.76003 -20.86848,-11.61975 -6.98036,-6.52931 -10.06885,-13.33348 -9.6869,-21.3409 l 0.30123,-6.31492 6.66346,-3.36906 c 3.6649,-1.85299 8.20951,-3.61995 10.09912,-3.9266 l 3.43566,-0.55753 0.58349,5.65352 c 1.00352,9.7231 6.63279,16.85365 15.88131,20.11672 8.56185,3.0208 16.6409,1.22245 23.92349,-5.32522 C 742.08219,137.74076 745,131.34182 745,124.87752 c 0,-1.51772 0.36773,-2.98675 0.81717,-3.26453 1.10741,-0.68441 8.02691,1.77471 15.24194,5.41685 L 767,130.02879 v 5.82588 c 0,14.17561 -11.9932,27.21152 -29.9315,32.53381 -5.95058,1.76553 -23.74908,2.07528 -30.31435,0.52756 z"
               id="path776" />
            <path
               style="fill:#000000"
               d="m 710,220.62244 c 0,-0.20765 -0.7875,-0.99515 -1.75,-1.75 -1.58606,-1.24387 -1.62143,-1.2085 -0.37756,0.37756 1.30637,1.66575 2.12756,2.19548 2.12756,1.37244 z"
               id="path774" />
            <path
               style="fill:#000000"
               d="m 725.00071,224.25 c 3.8e-4,-0.4125 1.17023,-0.81769 2.59965,-0.90042 3.32904,-0.19267 9.03122,-5.70321 10.49683,-10.14407 1.32664,-4.01976 0.66875,-13.4502 -0.97659,-13.99864 -0.62318,-0.20773 -0.90898,-0.74026 -0.63511,-1.1834 0.27388,-0.44313 -1.26328,-2.39687 -3.4159,-4.34164 -6.48047,-5.85471 -17.45751,-6.04077 -23.35464,-0.39587 -1.27213,1.21772 -1.59116,1.76404 -0.70895,1.21404 0.88221,-0.55 0.29174,0.19953 -1.31215,1.66563 -1.6039,1.46609 -2.61459,3.15359 -2.24599,3.75 0.36859,0.5964 0.22158,1.08437 -0.32669,1.08437 -0.54828,0 -1.03033,1.0125 -1.07122,2.25 -0.19594,5.92995 0.0451,9.19912 0.7152,9.70035 0.40417,0.30231 0.8149,1.0148 0.91274,1.58331 0.18739,1.08891 7.32211,8.97854 7.32211,8.09685 0,-0.28155 1.2375,0.13364 2.75,0.92263 2.88484,1.50488 9.24949,1.98433 9.25071,0.69686 z"
               id="path772" />
            <path
               style="fill:#bd7126;fill-opacity:1"
               d="m 712.45863,225.12034 c -11.07538,-5.03085 -14.75174,-19.8938 -7.42314,-30.01064 8.31213,-11.47456 25.90676,-10.81321 33.38118,1.25473 2.33524,3.77041 2.91563,5.84805 2.9115,10.42236 -0.003,3.2559 -0.6831,7.00354 -1.58135,8.71321 -2.07754,3.95425 -7.54337,9.11212 -11.06192,10.43867 -4.26787,1.60905 -11.70852,1.2338 -16.22627,-0.81833 z"
               id="path770" />
            <path
               style="fill:#000000"
               d="m 762.41779,237.91533 c 1.42757,-1.69657 2.37016,-3.44942 2.09464,-3.89522 -0.27552,-0.4458 0.12755,-1.05172 0.89571,-1.34649 1.9434,-0.74575 5.36991,-10.36004 6.66333,-18.6963 1.73012,-11.15091 -1.8453,-28.13731 -7.1126,-33.79109 C 763.83864,178.9838 763.23436,178 763.61603,178 c 0.38167,0 -0.12054,-0.9 -1.11603,-2 -0.99549,-1.1 -2.52773,-2.00689 -3.40499,-2.01531 C 757.7,173.97129 757.68809,173.84782 759,173 c 0.825,-0.53316 1.11947,-0.97627 0.65437,-0.98469 -0.4651,-0.008 -2.0401,0.81408 -3.5,1.82779 -1.4599,1.0137 -5.01687,2.89391 -7.90437,4.17825 -2.8875,1.28434 -5.25,2.66495 -5.25,3.06801 0,0.40307 1.38453,1.89785 3.07673,3.32175 1.69219,1.42389 2.70469,2.6032 2.25,2.62069 -0.4547,0.0175 -0.15173,0.58162 0.67327,1.25362 0.825,0.672 1.60923,1.67019 1.74273,2.2182 0.1335,0.54801 1.13131,3.47138 2.21735,6.49638 2.34662,6.53612 2.54237,12.01262 0.6537,18.28819 -0.76242,2.53332 -1.13742,4.85484 -0.83333,5.15893 0.30409,0.30408 0.10012,0.55288 -0.45327,0.55288 -1.16331,0 -3.80108,5.0157 -3.41836,6.5 0.14182,0.55 -0.0434,0.69876 -0.41158,0.33058 -0.36818,-0.36819 -1.92499,0.7358 -3.45957,2.45329 l -2.79016,3.12273 5.18941,2.10913 c 2.85417,1.16002 6.27361,2.86854 7.59875,3.7967 3.34414,2.34232 4.40446,2.14165 7.38212,-1.3971 z"
               id="path768" />
            <path
               style="fill:#d0471a;fill-opacity:1"
               d="m 753.5,241.40326 c -2.2,-1.32453 -6.5875,-3.3674 -9.75,-4.53973 -3.1625,-1.17233 -5.74934,-2.40872 -5.74853,-2.74752 8.1e-4,-0.33881 2.24103,-2.81379 4.97827,-5.49996 11.94811,-11.7252 12.13207,-31.00845 0.41087,-43.06842 C 739.00451,181.03476 738.18515,178 741.35282,178 c 0.77857,0 5.01188,-1.8 9.40734,-4 4.39547,-2.2 8.45925,-4 9.03063,-4 1.29631,0 7.24818,8.09394 10.0879,13.71852 6.63801,13.14777 6.58079,33.33606 -0.1326,46.78148 -3.23028,6.46953 -8.78535,13.50742 -10.58126,13.40574 -0.91566,-0.0519 -3.46483,-1.17796 -5.66483,-2.50248 z"
               id="path766" />
            <path
               style="fill:#000000"
               d="m 687.03831,238.93802 c 0.37691,-0.60986 1.08499,-1.06445 1.57349,-1.01019 1.32637,0.14731 11.35138,-4.32624 11.37113,-5.07424 0.009,-0.35552 -1.56475,-2.03526 -3.49808,-3.73275 -1.93333,-1.69748 -3.52949,-3.30974 -3.54703,-3.58279 -0.0175,-0.27304 -1.00254,-2.64331 -2.1889,-5.26725 -5.02091,-11.10497 -2.84577,-25.33495 5.28443,-34.57134 2.18166,-2.4785 3.96665,-4.73991 3.96665,-5.02536 0,-0.64222 -7.21798,-3.16115 -8.25,-2.87909 -0.4125,0.11275 -0.75,-0.27157 -0.75,-0.85403 0,-0.58246 -0.45,-0.7809 -1,-0.44098 -0.55,0.33992 -1,0.2385 -1,-0.22538 0,-0.46387 -1.28955,-1.60516 -2.86566,-2.53619 -2.76621,-1.63404 -2.93107,-1.61549 -4.75,0.53439 L 679.5,176.5 682,174.56507 c 1.375,-1.06421 0.78649,-0.27582 -1.3078,1.75197 -2.09429,2.02779 -3.53023,4.13601 -3.19098,4.68493 0.33925,0.54892 0.19567,0.99803 -0.31906,0.99803 -1.41438,0 -4.84529,8.69951 -6.23246,15.80322 -1.96603,10.0681 0.54385,27.54747 4.52761,31.53124 0.7851,0.78509 1.14888,1.70602 0.8084,2.04649 -0.34047,0.34048 -0.0675,0.61905 0.60664,0.61905 0.67413,0 0.96466,0.42234 0.64563,0.93854 -0.31902,0.5162 0.21692,1.40251 1.19099,1.96959 0.97407,0.56708 1.32103,1.05474 0.77103,1.0837 -0.55,0.029 0.125,0.98169 1.5,2.11718 1.375,1.1355 1.86797,1.73097 1.09549,1.32326 -0.89442,-0.47207 -1.15917,-0.34432 -0.72897,0.35175 0.80639,1.30477 4.70163,0.72375 5.67179,-0.846 z"
               id="path764" />
            <path
               style="fill:#d0471a;fill-opacity:1"
               d="m 680.28337,241.75 c -10.83145,-11.80037 -15.19969,-33.05852 -10.30796,-50.16401 2.0748,-7.25519 6.9554,-16.23291 10.77605,-19.82223 l 2.26083,-2.12393 8.47196,4.18008 c 4.65958,2.29905 9.17094,4.18009 10.02524,4.18009 3.13721,0 2.66744,2.90576 -0.98876,6.11594 -2.01127,1.76593 -5.05729,5.94976 -6.76893,9.29742 -2.57171,5.02978 -3.12421,7.30537 -3.18194,13.10555 -0.0597,5.99929 0.40882,7.99156 3.22528,13.71441 1.85055,3.76019 4.86938,7.99311 6.88603,9.6554 3.83059,3.1575 4.02282,6.11128 0.39772,6.11128 -1.09113,0 -5.40163,1.8 -9.57889,4 -4.17726,2.2 -7.9452,4 -8.37319,4 -0.428,0 -1.70755,-1.0125 -2.84344,-2.25 z"
               id="path762" />
            <path
               style="fill:#000000"
               d="m 793.18346,255.67764 c 18.12292,-26.45005 19.77805,-62.23505 4.19099,-90.612 -3.65469,-6.65354 -11.18552,-16.70914 -15.58724,-20.81299 l -2.41047,-2.24735 -1.25925,4.91333 c -0.69259,2.70234 -2.57735,6.99177 -4.18837,9.53208 -1.61102,2.54031 -2.92475,4.94062 -2.91941,5.33402 0.005,0.3934 1.61488,2.73476 3.57677,5.20302 8.33371,10.48469 13.37344,25.51067 13.39874,39.94836 0.0248,14.15135 -5.18981,29.74844 -13.39874,40.07614 -1.96189,2.46826 -3.57144,4.77073 -3.57677,5.1166 -0.005,0.34586 1.53051,3.18664 3.41301,6.31283 1.88249,3.12619 3.74084,7.56697 4.12967,9.86839 l 0.70695,4.18442 4.96739,-5.49725 c 2.73207,-3.02348 6.7626,-8.1173 8.95673,-11.3196 z"
               id="path760" />
            <path
               style="fill:#f8b100;fill-opacity:1"
               d="m 777.6498,273.24238 c -0.25753,-0.41668 -0.78388,-2.44016 -1.16967,-4.4966 -0.38579,-2.05644 -2.4766,-6.68225 -4.64625,-10.27956 l -3.9448,-6.54059 4.11923,-5.17354 c 18.42635,-23.14251 18.40055,-56.34392 -0.0619,-79.70071 l -4.08229,-5.16449 3.17987,-4.95539 c 1.74893,-2.72547 3.97767,-7.53752 4.95276,-10.69345 0.99399,-3.21711 2.428,-5.8696 3.26403,-6.03748 1.73435,-0.34828 10.1469,8.70574 15.9463,17.16223 15.57888,22.71656 19.29226,54.66772 9.40606,80.93291 -4.21935,11.2098 -9.12566,19.1586 -18.08607,29.3016 -5.25292,5.94619 -7.72111,7.51573 -8.87724,5.64507 z"
               id="path758" />
            <path
               style="fill:#000000"
               d="m 664.99356,265.5 c 0.67934,-2.2 2.5934,-6.15744 4.25348,-8.79431 l 3.01832,-4.79432 -2.0224,-2.20568 c -3.96322,-4.32239 -9.47522,-14.0218 -11.88028,-20.90561 -7.52947,-21.55101 -3.63045,-45.04597 10.38244,-62.5632 l 3.41028,-4.26312 -2.92112,-4.74743 c -1.60662,-2.61109 -3.50068,-6.54269 -4.20902,-8.73688 -0.70834,-2.1942 -1.50316,-4.36385 -1.76627,-4.82145 -0.64304,-1.11837 -5.52581,3.60333 -10.68448,10.332 -21.57454,28.14061 -23.87487,66.85818 -5.78043,97.29206 5.18217,8.71612 15.05954,20.29493 16.22417,19.01888 0.40708,-0.44601 1.29597,-2.61094 1.97531,-4.81094 z"
               id="path756" />
            <path
               style="fill:#f8b100;fill-opacity:1"
               d="M 657.82964,269.25 C 628.03751,238.45411 624.00935,191.38984 648.15984,156.26989 652.24766,150.32534 661.96769,140 663.47594,140 c 0.69328,0 1.99209,2.5875 2.88624,5.75 0.89415,3.1625 2.97652,7.775 4.62749,10.25 1.65097,2.475 3.00369,5.07574 3.00605,5.77942 0.002,0.70368 -1.78638,3.54477 -3.97496,6.31353 -17.54586,22.19718 -17.54586,55.61692 0,77.8141 2.18858,2.76876 3.97731,5.60985 3.97496,6.31353 -0.002,0.70368 -1.35508,3.30442 -3.00605,5.77942 -1.65097,2.475 -3.73334,7.0875 -4.62749,10.25 -0.89415,3.1625 -2.14585,5.75 -2.78155,5.75 -0.6357,0 -3.22364,-2.1375 -5.75099,-4.75 z"
               id="path754" />
            <path
               style="fill:#000000"
               d="m 757.25,285.72982 6.75,-3.0259 v -5.3852 C 764,271.85907 760.12758,262 757.98315,262 757.44242,262 757,261.52842 757,260.95203 c 0,-4.05206 -16.15087,-12.39996 -27.33075,-14.12643 -12.84208,-1.98317 -30.61646,1.68906 -37.05438,7.65552 -1.43818,1.33286 -2.61487,2.14143 -2.61487,1.79682 0,-1.55808 -5.39253,4.66792 -7.96831,9.19988 -3.36667,5.92352 -5.02131,15.7712 -2.88181,17.15129 0.74257,0.47899 4.04179,2.07703 7.33162,3.55121 6.52955,2.9259 8.5185,2.49749 8.5185,-1.83488 0,-3.88356 2.81998,-9.55775 6.79883,-13.68017 10.44262,-10.81946 25.41635,-11.38965 36.76518,-1.40001 5.48708,4.82992 8.383,10.49279 8.41403,16.45336 0.0251,4.82785 -0.47151,4.8273 10.27196,0.0112 z"
               id="path752" />
            <path
               style="fill:#003e5f;fill-opacity:1"
               d="M 684.1971,288.03597 676,284.07195 v -6.33963 c 0,-10.80221 6.91345,-21.14475 18.5,-27.67603 6.47854,-3.65193 10.34763,-4.84055 19.50481,-5.9921 C 741.583,240.59614 767,256.97979 767,278.22459 v 5.90515 l -8.39735,3.93513 C 753.9841,290.22919 749.0341,292 747.60265,292 745.40984,292 745,291.55262 745,289.15893 c 0,-4.44534 -2.58225,-11.92244 -5.38774,-15.60064 C 735.95496,268.76333 727.89002,265 721.27154,265 c -13.03165,0 -22.66035,8.67804 -23.99687,21.6276 -0.69725,6.7558 -1.7789,6.87228 -13.07757,1.40837 z"
               id="path750" />
            <path
               style="fill:#000000"
               d="m 729.06574,292.96482 c 2.84342,-1.52176 2.65414,-8.24494 -0.31574,-11.21482 -1.2375,-1.2375 -2.475,-2.28886 -2.75,-2.33637 -0.275,-0.0475 -1.29089,-0.43444 -2.25753,-0.85987 -2.32361,-1.02266 -7.91004,0.078 -10.31874,2.03312 -1.05805,0.85879 -1.24873,1.26969 -0.42373,0.91312 0.87896,-0.37989 0.74037,-0.0288 -0.33472,0.84803 -1.0091,0.823 -2.0735,3.27657 -2.36534,5.45238 -0.48927,3.64785 -0.30739,4.03727 2.33472,4.99886 3.77282,1.37311 13.98253,1.47597 16.43108,0.16555 z"
               id="path748" />
            <path
               style="fill:#d0471a;fill-opacity:1"
               d="m 709.25,295.35328 c -1.76887,-0.73577 -1.58814,-9.7987 0.26693,-13.38601 C 711.44301,278.24263 715.7586,276 721,276 c 8.70354,0 13.3283,5.16582 12.80059,14.29817 L 733.5,295.5 722,295.68661 c -6.325,0.10264 -12.0625,-0.0474 -12.75,-0.33333 z"
               id="path746" />
            <path
               style="fill:#000000"
               d="m 810.83353,342.3545 c 3.65969,-2.36824 5.43731,-7.63495 4.16799,-12.34884 -0.58073,-2.15667 -1.56317,-4.23474 -2.1832,-4.61795 -0.73257,-0.45275 -0.86776,-0.2049 -0.38605,0.70778 0.40771,0.77248 -0.11069,0.36087 -1.15199,-0.91469 -2.68253,-3.28601 -8.81177,-3.89347 -12.96891,-1.28534 -5.77361,3.62228 -6.52641,12.64947 -1.45303,17.42401 4.18661,3.94001 8.94183,4.29219 13.97519,1.03503 z"
               id="path736" />
            <path
               style="fill:#bd7126;fill-opacity:1"
               d="M 800,345.87927 C 786.31257,340.43739 789.75899,320 804.3641,320 c 14.4404,0 18.35181,20.04249 5.00012,25.62118 -3.80757,1.5909 -5.86903,1.64772 -9.36422,0.25809 z"
               id="path734" />
            <path
               style="fill:#000000"
               d="m 645.56747,341.93661 c 1.30399,-1.22503 2.1332,-2.61192 1.84269,-3.08197 C 647.11965,338.38459 647.35852,338 647.94098,338 648.5246,338 649,336.04046 649,333.63486 c 0,-5.48267 -2.73587,-9.17583 -7.95597,-10.73981 -3.28296,-0.9836 -4.40096,-0.8769 -7.60592,0.72593 -2.06648,1.03346 -3.66937,2.23259 -3.56196,2.66473 0.1074,0.43215 -0.49579,1.47679 -1.34044,2.32143 -1.94316,1.94317 -1.9934,7.79231 -0.0833,9.70238 0.79881,0.79881 1.23794,1.66683 0.97583,1.92893 -0.2621,0.2621 0.29571,1.10317 1.23958,1.86905 1.4869,1.2065 1.60405,1.19214 0.8771,-0.1075 -0.46146,-0.825 0.19181,-0.43692 1.45171,0.8624 1.88592,1.94491 2.98961,2.26866 6.24536,1.83197 2.17505,-0.29173 5.02152,-1.53272 6.32551,-2.75776 z"
               id="path732" />
            <path
               style="fill:#bd7126;fill-opacity:1"
               d="m 631.29855,345.04048 c -8.81148,-5.37267 -8.23764,-18.99431 0.98452,-23.37052 1.93555,-0.91848 4.47813,-1.66996 5.65018,-1.66996 3.49915,0 8.58606,2.57344 10.89885,5.51368 2.98115,3.78992 3.02298,12.12955 0.0796,15.87144 -4.4429,5.64824 -11.83029,7.18138 -17.61315,3.65536 z"
               id="path730" />
            <path
               style="fill:#000000"
               d="m 773.24426,361.49936 c 0.95934,-0.38991 1.49528,-1.11178 1.19098,-1.60414 C 774.13094,359.40285 774.3145,359 774.84316,359 c 1.50782,0 3.201,-5.95632 2.52102,-8.86853 -0.33793,-1.44731 -1.57062,-3.45802 -2.7393,-4.46825 -1.16868,-1.01022 -1.49285,-1.5032 -0.72037,-1.09549 0.91248,0.4816 1.16051,0.3465 0.70802,-0.38566 -1.39763,-2.2614 -8.09396,-3.50832 -11.97038,-2.22898 -1.98786,0.65605 -3.91509,1.67952 -4.28273,2.27437 -0.42264,0.68385 -0.15197,0.80897 0.73607,0.34027 0.77248,-0.40771 0.27951,0.17226 -1.09549,1.28881 -3.4012,2.76191 -3.40558,10.01839 -0.008,13.6347 1.26442,1.34592 2.68354,2.20943 3.15359,1.91892 0.47005,-0.29051 0.85464,-0.0829 0.85464,0.46127 0,2.04457 5.76798,1.85371 11.24426,-0.37207 z"
               id="path728" />
            <path
               style="fill:#bd7126;fill-opacity:1"
               d="m 761.5,364.63602 c -10.37608,-4.77655 -11.20928,-18.56854 -1.43834,-23.80875 6.59962,-3.53942 14.65408,-1.21155 18.11107,5.23439 2.35579,4.39263 2.31262,8.63009 -0.12873,12.63401 -3.67761,6.03145 -10.79477,8.58697 -16.544,5.94035 z"
               id="path726" />
            <path
               style="fill:#000000"
               d="m 680.83541,361.97112 c 0.18448,-0.54097 0.71094,-0.75149 1.16993,-0.46782 0.45898,0.28366 1.77054,-0.67422 2.91459,-2.12863 3.17421,-4.03536 2.8345,-10.49876 -0.76344,-14.52556 -2.45573,-2.74844 -3.50506,-3.18244 -7.69445,-3.18244 -2.82178,0 -5.01447,0.49062 -5.24189,1.17289 -0.21504,0.6451 -0.77175,0.93757 -1.23714,0.64994 -1.05752,-0.65358 -4.08728,3.53278 -3.38229,4.67347 0.28452,0.46037 0.0408,0.83703 -0.5417,0.83703 -1.58918,0 -1.27423,5.68316 0.50569,9.12514 0.8606,1.66421 2.9981,3.66679 4.75,4.45019 3.29931,1.47534 8.93349,1.11778 9.5207,-0.60421 z"
               id="path724" />
            <path
               style="fill:#bd7126;fill-opacity:1"
               d="m 670.26969,364.51741 c -6.70007,-2.91271 -9.3338,-12.6196 -5.24406,-19.32759 4.39229,-7.20421 15.26709,-8.03727 20.91703,-1.60235 2.5919,2.95201 3.05734,4.2936 3.05734,8.81247 0,6.20761 -2.38709,10.02819 -7.63578,12.22124 -4.11663,1.72004 -6.96043,1.69344 -11.09453,-0.10377 z"
               id="path722" />
            <path
               style="fill:#000000"
               d="M 729.08616,366.90349 C 731.35126,364.36641 732,362.678 732,359.31989 732,356.94395 731.55,355 731,355 c -0.55,0 -0.8875,-0.49016 -0.75,-1.08924 0.44075,-1.92033 -5.11238,-5.31076 -8.6984,-5.31076 -4.75908,0 -8.16887,2.07367 -10.09941,6.14199 C 709.7367,358.35712 710.15901,365 712.10433,365 c 0.55754,0 0.73987,0.44307 0.40519,0.9846 -0.33468,0.54153 0.87626,1.91516 2.69098,3.05252 4.71745,2.95661 10.07625,2.13319 13.88566,-2.13363 z"
               id="path720" />
            <path
               style="fill:#bd7126;fill-opacity:1"
               d="m 714.18982,370.97437 c -6.99804,-4.2666 -8.0284,-14.45049 -2.08267,-20.58492 10.40406,-10.73427 27.17172,1.14903 21.07357,14.93492 -3.18582,7.20207 -12.09683,9.85319 -18.9909,5.65 z"
               id="path718" />
          </g>
        </g>
      </g>
    </g>
  </g>
</svg>
