<?xml version="1.0" encoding="UTF-8" standalone="no"?>
<svg
   xmlns:dc="http://purl.org/dc/elements/1.1/"
   xmlns:cc="http://creativecommons.org/ns#"
   xmlns:rdf="http://www.w3.org/1999/02/22-rdf-syntax-ns#"
   xmlns:svg="http://www.w3.org/2000/svg"
   xmlns="http://www.w3.org/2000/svg"
   xmlns:sodipodi="http://sodipodi.sourceforge.net/DTD/sodipodi-0.dtd"
   xmlns:inkscape="http://www.inkscape.org/namespaces/inkscape"
   width="276.1044mm"
   height="60.211224mm"
   viewBox="0 0 276.10441 60.211224"
   version="1.1"
   id="svg8"
   inkscape:version="1.0.2-2 (e86c870879, 2021-01-15)"
   sodipodi:docname="seq2seq.svg">
  <defs
     id="defs2">
    <rect
       x="33.332348"
       y="131.82312"
       width="103.3399"
       height="51.806301"
       id="rect562" />
    <rect
       x="33.332348"
       y="131.82312"
       width="103.3399"
       height="51.806301"
       id="rect562-5" />
    <rect
       x="33.332348"
       y="131.82312"
       width="103.3399"
       height="51.806301"
       id="rect95" />
    <rect
       x="33.332348"
       y="131.82312"
       width="103.3399"
       height="51.806301"
       id="rect562-5-6" />
    <rect
       x="33.332348"
       y="131.82312"
       width="103.3399"
       height="51.806301"
       id="rect372" />
  </defs>
  <sodipodi:namedview
     id="base"
     pagecolor="#ffffff"
     bordercolor="#666666"
     borderopacity="1.0"
     inkscape:pageopacity="0.0"
     inkscape:pageshadow="2"
     inkscape:zoom="0.49497475"
     inkscape:cx="587.95037"
     inkscape:cy="232.67876"
     inkscape:document-units="mm"
     inkscape:current-layer="layer1"
     inkscape:document-rotation="0"
     showgrid="false"
     inkscape:window-width="1920"
     inkscape:window-height="1027"
     inkscape:window-x="3832"
     inkscape:window-y="-8"
     inkscape:window-maximized="1"
     fit-margin-top="0"
     fit-margin-left="0"
     fit-margin-right="0"
     fit-margin-bottom="0" />
  <metadata
     id="metadata5">
    <rdf:RDF>
      <cc:Work
         rdf:about="">
        <dc:format>image/svg+xml</dc:format>
        <dc:type
           rdf:resource="http://purl.org/dc/dcmitype/StillImage" />
        <dc:title />
      </cc:Work>
    </rdf:RDF>
  </metadata>
  <g
     inkscape:label="Layer 1"
     inkscape:groupmode="layer"
     id="layer1"
     transform="translate(-32.410703,-86.603743)">
    <g
       id="g548">
      <text
         xml:space="preserve"
         id="text560"
         style="font-style:normal;font-weight:normal;font-size:10.5833px;line-height:1.25;font-family:sans-serif;white-space:pre;shape-inside:url(#rect562);fill:#0085ad;fill-opacity:1;stroke:none;"
         transform="matrix(2.2006011,0,0,2.2006011,130.88196,-188.06298)"><tspan
           x="33.332031"
           y="141.47773"><tspan
             style="font-style:normal;font-variant:normal;font-weight:bold;font-stretch:normal;font-family:'Zilla Slab';-inkscape-font-specification:'Zilla Slab Bold';fill:#0085ad">-&gt;
</tspan></tspan><tspan
           x="33.332031"
           y="154.82937"><tspan
             style="font-style:normal;font-variant:normal;font-weight:bold;font-stretch:normal;font-family:'Zilla Slab';-inkscape-font-specification:'Zilla Slab Bold';fill:#0085ad">
</tspan></tspan><tspan
           x="33.332031"
           y="168.18101"><tspan
             style="font-style:normal;font-variant:normal;font-weight:bold;font-stretch:normal;font-family:'Zilla Slab';-inkscape-font-specification:'Zilla Slab Bold';fill:#0085ad">
</tspan></tspan><tspan
           style="visibility:hidden"
           x="33.332031"
           y="193.28437"><tspan
             dx="0 3.5243216"
             style="font-style:normal;font-variant:normal;font-weight:bold;font-stretch:normal;font-family:'Zilla Slab';-inkscape-font-specification:'Zilla Slab Bold';fill:#0085ad">(/</tspan><tspan
             dx="2.9403796"
             style="font-style:normal;font-variant:normal;font-weight:bold;font-stretch:normal;font-family:'Zilla Slab';-inkscape-font-specification:'Zilla Slab Bold';fill:#0085ad">ˈ</tspan><tspan
             dx="3.524322"
             style="font-style:normal;font-variant:normal;font-weight:bold;font-stretch:normal;font-family:'Zilla Slab';-inkscape-font-specification:'Zilla Slab Bold';fill:#0085ad">k</tspan><tspan
             dx="5.8859262 5.8859262"
             style="font-style:normal;font-variant:normal;font-weight:bold;font-stretch:normal;font-family:'Zilla Slab';-inkscape-font-specification:'Zilla Slab Bold';fill:#0085ad">ɔː</tspan><tspan
             dx="3.5243216"
             style="font-style:normal;font-variant:normal;font-weight:bold;font-stretch:normal;font-family:'Zilla Slab';-inkscape-font-specification:'Zilla Slab Bold';fill:#0085ad">r</tspan><tspan
             dx="4.1185989"
             style="font-style:normal;font-variant:normal;font-weight:bold;font-stretch:normal;font-family:'Zilla Slab';-inkscape-font-specification:'Zilla Slab Bold';fill:#0085ad">ɡ</tspan><tspan
             dx="6.4646988 2.9403801 2.9403801 3.5243187 5.8859291 3.5243187"
             style="font-style:normal;font-variant:normal;font-weight:bold;font-stretch:normal;font-family:'Zilla Slab';-inkscape-font-specification:'Zilla Slab Bold';fill:#0085ad">i/[5] </tspan></tspan></text>
      <g
         id="g524">
        <path
           d="m 249.44324,108.60132 q 1.63435,0 2.94477,0.63312 1.31042,0.6184 2.13496,1.76687 0.83926,1.14846 1.04539,2.70917 h -2.41471 q -0.13253,-0.79509 -0.6184,-1.45765 -0.47116,-0.66259 -1.25153,-1.06012 -0.78036,-0.39753 -1.82575,-0.39753 -1.95827,0 -3.18035,1.41347 -1.22208,1.41349 -1.22208,4.32882 0,2.63555 1.11901,4.22573 1.13374,1.57545 3.32759,1.57545 1.04539,0 1.81103,-0.39755 0.78036,-0.41225 1.25153,-1.07484 0.47116,-0.67728 0.60367,-1.44293 h 2.37054 q -0.19141,1.53127 -1.03067,2.6503 -0.83926,1.11899 -2.14968,1.73739 -1.29569,0.60369 -2.91532,0.60369 -2.04661,0 -3.63678,-0.89815 -1.57545,-0.89816 -2.4736,-2.6503 -0.89816,-1.75212 -0.89816,-4.29936 0,-2.38526 0.80981,-4.16682 0.82454,-1.79633 2.38526,-2.79755 1.57545,-1.00121 3.81347,-1.00121 z"
           style="font-style:normal;font-variant:normal;font-weight:normal;font-stretch:normal;font-size:10.5833px;line-height:1.25;font-family:'Public Sans';-inkscape-font-specification:'Public Sans';white-space:pre;fill:#0085ad;fill-opacity:1;stroke:none;stroke-width:2.78246"
           id="path464" />
        <path
           d="m 265.31551,124.41471 q -2.10551,0 -3.68095,-0.89815 -1.57546,-0.91288 -2.44416,-2.66502 -0.86871,-1.75212 -0.86871,-4.28464 0,-2.38526 0.80981,-4.18157 0.80981,-1.7963 2.37054,-2.7828 1.57545,-1.00121 3.81347,-1.00121 2.10551,0 3.65151,0.92759 1.56073,0.9129 2.41471,2.69448 0.85398,1.78156 0.85398,4.34351 0,2.32637 -0.79508,4.09323 -0.78037,1.76687 -2.32637,2.76808 -1.53128,0.9865 -3.79875,0.9865 z m 0,-2.14968 q 1.36932,0 2.31164,-0.69203 0.94233,-0.692 1.42821,-1.98771 0.48589,-1.29568 0.48589,-3.07726 0,-1.63437 -0.42699,-2.93005 -0.42699,-1.31043 -1.36932,-2.07608 -0.9276,-0.76562 -2.42943,-0.76562 -1.38404,0 -2.34109,0.69202 -0.95704,0.67728 -1.45765,1.97299 -0.48589,1.29569 -0.48589,3.10674 0,1.6049 0.44171,2.9153 0.44172,1.31043 1.38404,2.07605 0.94233,0.76565 2.45888,0.76565 z"
           style="font-style:normal;font-variant:normal;font-weight:normal;font-stretch:normal;font-size:10.5833px;line-height:1.25;font-family:'Public Sans';-inkscape-font-specification:'Public Sans';white-space:pre;fill:#0085ad;fill-opacity:1;stroke:none;stroke-width:2.78246"
           id="path466" />
        <path
           d="m 275.81356,124.12024 v -15.22445 h 2.59139 v 2.93004 q 0.38282,-1.08955 1.07484,-1.7963 0.69202,-0.72146 1.57545,-1.07484 0.89815,-0.35337 1.8552,-0.35337 0.33865,0 0.66257,0.0442 0.32393,0.0442 0.50061,0.14719 v 2.63558 q -0.22084,-0.10295 -0.57422,-0.13244 -0.33865,-0.0443 -0.57423,-0.0443 -0.91288,-0.059 -1.70797,0.1177 -0.79508,0.16194 -1.39876,0.57422 -0.60368,0.41228 -0.95705,1.08959 -0.33865,0.66256 -0.33865,1.61961 v 9.46742 z"
           style="font-style:normal;font-variant:normal;font-weight:normal;font-stretch:normal;font-size:10.5833px;line-height:1.25;font-family:'Public Sans';-inkscape-font-specification:'Public Sans';white-space:pre;fill:#0085ad;fill-opacity:1;stroke:none;stroke-width:2.78246"
           id="path468" />
        <path
           d="m 293.64408,129.15578 q -3.59261,0 -5.59506,-1.04537 -1.98771,-1.03069 -1.98771,-2.95952 0,-0.82453 0.38282,-1.39874 0.38282,-0.58897 0.91288,-0.97178 0.53005,-0.38281 0.98649,-0.60368 0.45644,-0.23568 0.58895,-0.33866 -0.25031,-0.14719 -0.63312,-0.36809 -0.3681,-0.22093 -0.64785,-0.58894 -0.27975,-0.36812 -0.27975,-0.95705 0,-0.72147 0.67729,-1.32515 0.6773,-0.60368 2.00245,-0.89815 -1.33987,-0.67731 -2.09079,-1.79631 -0.75091,-1.11902 -0.75091,-2.42942 0,-1.4724 0.79508,-2.56196 0.80981,-1.08955 2.29692,-1.6638 1.48711,-0.58894 3.53372,-0.58894 1.48711,0 2.50305,0.35338 1.01595,0.33862 1.88465,0.97174 0.23559,-0.10295 0.73619,-0.30918 0.51534,-0.22093 1.13374,-0.47116 0.6184,-0.25042 1.14846,-0.47118 0.54478,-0.23567 0.8687,-0.35337 l -0.0147,2.51779 -2.66502,0.5006 q 0.22085,0.47118 0.35338,1.03068 0.14724,0.5595 0.14724,1.0454 0,1.33987 -0.70674,2.42942 -0.69202,1.08956 -2.10551,1.7374 -1.41349,0.64787 -3.53372,0.64787 -0.17668,0 -0.45644,0 -0.26503,-0.0139 -0.45644,-0.0295 -1.56072,0.0442 -2.14967,0.35337 -0.58896,0.29447 -0.58896,0.66259 0,0.42697 0.66257,0.58894 0.66258,0.16194 2.25275,0.27974 0.57423,0.0295 1.41349,0.0737 0.85398,0.0442 1.88465,0.1177 2.39998,0.14719 3.69568,1.22208 1.2957,1.07484 1.2957,2.90061 0,2.07606 -1.85521,3.38649 -1.8552,1.3104 -5.63922,1.3104 z m 0.48589,-1.75212 q 2.10551,0 3.22452,-0.63312 1.11901,-0.63315 1.11901,-1.91412 0,-0.91287 -0.69202,-1.48711 -0.6773,-0.58894 -2.07606,-0.67728 l -4.26991,-0.27975 q -0.57423,-0.0295 -1.19263,0.29447 -0.6184,0.30918 -1.06012,0.86871 -0.42699,0.5595 -0.42699,1.26624 0,1.20734 1.31042,1.88465 1.32515,0.67731 4.06378,0.67731 z m -0.47117,-10.86619 q 1.64907,0 2.65029,-0.76566 1.01595,-0.76562 1.01595,-2.26745 0,-1.546 -1.01595,-2.35583 -1.00122,-0.80981 -2.65029,-0.80981 -1.66379,0 -2.69446,0.82455 -1.01594,0.80981 -1.01594,2.34109 0,1.44293 0.97177,2.23802 0.97178,0.79509 2.73863,0.79509 z"
           style="font-style:normal;font-variant:normal;font-weight:normal;font-stretch:normal;font-size:10.5833px;line-height:1.25;font-family:'Public Sans';-inkscape-font-specification:'Public Sans';white-space:pre;fill:#0085ad;fill-opacity:1;stroke:none;stroke-width:2.78246"
           id="path470" />
        <path
           d="m 308.4562,108.89579 v 15.22445 h -2.63556 v -15.22445 z m 0.0589,-6.0515 v 2.82698 h -2.78281 v -2.82698 z"
           style="font-style:normal;font-variant:normal;font-weight:normal;font-stretch:normal;font-size:10.5833px;line-height:1.25;font-family:'Public Sans';-inkscape-font-specification:'Public Sans';white-space:pre;fill:#0085ad;fill-opacity:1;stroke:none;stroke-width:2.78246"
           id="path472" />
      </g>
      <path
         style="fill:#0085ad;stroke-width:0.283557"
         d="m 106.73988,146.76096 c -0.0818,-0.4471 -0.87447,-23.88029 -0.88162,-26.06355 -0.003,-1.07871 -0.0596,-1.90812 -0.12453,-1.84313 -0.0649,0.0649 -0.27116,4.90316 -0.45824,10.75152 -0.18707,5.84836 -0.42998,11.01619 -0.5398,11.48403 -0.10981,0.46787 -0.36977,-4.28694 -0.57768,-10.56627 -0.20789,-6.27931 -0.43533,-11.35959 -0.5054,-11.28952 -0.0701,0.0702 -0.30814,3.10227 -0.52904,6.73824 -0.2209,3.63598 -0.43894,6.73007 -0.48454,6.87573 -0.0455,0.14568 -0.24844,-2.66152 -0.45077,-6.23822 -0.34506,-6.09971 -0.73247,-9.55554 -0.87206,-7.77912 -0.0307,0.38988 -0.21152,1.34687 -0.40198,2.12666 l -0.34628,1.41778 -0.34856,-1.70133 c -0.654547,-3.19475 -0.783927,-2.93402 -1.168927,2.35574 -0.20674,2.84056 -0.43174,5.10881 -0.49997,5.04057 -0.13305,-0.13314 -0.89889,-7.98079 -0.91318,-9.3576 -0.0143,-1.37486 -0.26103,-0.68465 -0.60598,1.69513 -0.17946,1.23808 -0.41395,2.41645 -0.52108,2.6186 -0.10716,0.20224 -0.36263,-0.85504 -0.5678,-2.34938 -0.20516,-1.49434 -0.41953,-2.67048 -0.47636,-2.61363 -0.0568,0.0568 -0.30302,2.00435 -0.54708,4.32781 -0.24405,2.32348 -0.48163,4.26241 -0.52796,4.30873 -0.0463,0.0462 -0.2476,-1.70194 -0.44726,-3.88501 -0.19966,-2.18308 -0.47305,-3.90124 -0.60751,-3.81815 -0.13446,0.083 -0.24373,0.68586 -0.24282,1.33948 0.002,1.70435 -0.65477,11.42836 -0.75029,11.10228 -0.044,-0.15008 -0.27785,-3.07107 -0.51969,-6.49096 -0.24186,-3.41989 -0.48383,-6.2621 -0.53773,-6.31599 -0.0539,-0.0539 -0.2641,3.54266 -0.46711,7.99234 -0.203,4.44968 -0.42707,8.03235 -0.49789,7.96154 -0.13545,-0.13534 -0.88391,-12.34252 -0.90367,-14.73855 -0.006,-0.76678 -0.0643,-1.34098 -0.12891,-1.276 -0.0645,0.0649 -0.26626,4.13755 -0.44818,9.05017 -0.18192,4.91262 -0.42337,9.44243 -0.53655,10.06625 -0.12759,0.70332 -0.35525,-2.63636 -0.5992,-8.79023 -0.43739,-11.03333 -0.62873,-11.22549 -1.13277,-1.13754 -0.17913,3.5852 -0.35933,6.55216 -0.40045,6.59327 -0.0411,0.0412 -0.24152,-3.14741 -0.44534,-7.08561 -0.20382,-3.93821 -0.45789,-7.40249 -0.56461,-7.69836 -0.10675,-0.29591 -0.36183,2.09979 -0.5669,5.32381 -0.20508,3.22399 -0.40653,5.8267 -0.44771,5.78379 -0.0411,-0.0429 -0.2848,-2.8173 -0.5414,-6.16527 -0.2566,-3.34799 -0.50843,-6.12913 -0.55964,-6.18034 -0.0512,-0.0513 -0.26121,1.84718 -0.46669,4.21864 -0.42685,4.92657 -0.61181,4.78397 -1.14542,-0.88308 l -0.36043,-3.82801 -0.38422,1.84311 c -0.71936,3.45078 -0.69306,3.43536 -1.20914,0.7089 -0.26569,-1.40361 -0.55531,-2.36063 -0.64362,-2.12668 -0.0883,0.23392 -0.34124,0.99953 -0.56209,1.70133 l -0.40155,1.27602 -0.35809,-1.48869 c -0.19696,-0.81875 -0.45044,-1.48866 -0.56333,-1.48866 -0.11289,0 -0.37263,1.40759 -0.57723,3.12798 -0.20459,1.72041 -0.41528,3.08469 -0.46818,3.03179 -0.0529,-0.053 -0.29069,-1.48162 -0.52838,-3.17492 -0.2377,-1.69327 -0.47624,-3.12276 -0.5301,-3.17661 -0.0539,-0.0539 -0.26601,2.21138 -0.47145,5.0339 -0.20542,2.82251 -0.46226,4.96118 -0.57072,4.75263 -0.10847,-0.20861 -0.36781,-2.48459 -0.57633,-5.05788 -0.2085,-2.57327 -0.41622,-4.48727 -0.46157,-4.25334 -0.0453,0.23394 -0.2676,3.59648 -0.49388,7.47236 -0.22628,3.87587 -0.46318,7.09878 -0.52644,7.16205 -0.0632,0.0632 -0.28314,-3.14081 -0.4886,-7.12018 -0.20546,-3.97934 -0.42475,-7.18399 -0.4873,-7.12145 -0.11201,0.11201 -0.90824,16.14293 -0.92294,18.58188 -0.004,0.68879 -0.0567,1.19919 -0.11685,1.13421 -0.0601,-0.0649 -0.27111,-4.07375 -0.46887,-8.90839 -0.19775,-4.83463 -0.44632,-9.03474 -0.55236,-9.33354 -0.10601,-0.2988 -0.36226,4.67762 -0.56938,11.0587 -0.20712,6.38111 -0.41538,11.4744 -0.46279,11.31844 -0.0821,-0.2699 -0.95722,-21.77866 -0.95667,-23.51157 1.4e-4,-0.45486 -0.0496,-0.77386 -0.1106,-0.70888 -0.061,0.0649 -0.27579,3.92957 -0.47738,8.58796 -0.2016,4.65838 -0.45105,8.23119 -0.55434,7.93957 -0.10332,-0.29163 -0.34932,-4.10302 -0.54672,-8.46981 -0.19742,-4.36676 -0.40848,-7.99274 -0.46904,-8.05772 -0.0606,-0.0649 -0.11439,0.25402 -0.1196,0.70888 -0.022,1.91107 -0.80775,14.07353 -0.9163,14.18206 -0.0652,0.0651 -0.28704,-3.14723 -0.49312,-7.1386 -0.20608,-3.99138 -0.46205,-7.0867 -0.56882,-6.8785 -0.10675,0.20817 -0.3522,2.67533 -0.54544,5.48255 -0.19323,2.8072 -0.38487,5.13794 -0.42587,5.1794 -0.041,0.0416 -0.22688,-2.06394 -0.41307,-4.67869 -0.18617,-2.61474 -0.42339,-5.32825 -0.52713,-6.03007 -0.17286,-1.16951 -0.22624,-1.00387 -0.63941,1.9849 l -0.45081,3.26092 -0.36597,-2.55202 c -0.20129,-1.40361 -0.4597,-2.93481 -0.57427,-3.40268 l -0.20831,-0.85066 -0.44215,1.27599 -0.44215,1.27602 -0.56751,-1.27602 -0.56753,-1.27599 -0.20311,0.85066 c -0.11171,0.46787 -0.33934,1.36107 -0.50585,1.9849 l -0.30274,1.13421 -0.47413,-1.98488 c -0.45532,-1.90616 -0.48146,-1.94552 -0.65862,-0.99244 -0.1015,0.54583 -0.32371,2.07681 -0.49387,3.40219 -0.17015,1.32538 -0.34763,2.44804 -0.39441,2.4948 -0.0467,0.0469 -0.24306,-1.22901 -0.43622,-2.83508 -0.19314,-1.60608 -0.44079,-3.08711 -0.55034,-3.29115 -0.10955,-0.204 -0.36799,1.80832 -0.57433,4.47199 -0.20635,2.66368 -0.41601,4.80218 -0.46592,4.75227 -0.05,-0.0499 -0.29093,-2.18366 -0.5356,-4.74168 -0.24469,-2.55802 -0.50427,-4.71037 -0.57688,-4.78296 -0.0726,-0.0726 -0.1301,0.11245 -0.12775,0.41144 0.0147,1.86424 -0.70257,11.12926 -0.85429,11.03549 -0.1016,-0.0627 -0.35369,-2.67483 -0.56016,-5.80448 -0.20646,-3.12965 -0.42217,-5.64349 -0.47936,-5.58627 -0.0572,0.0572 -0.28663,1.92416 -0.50986,4.14884 -0.22323,2.22465 -0.45962,4.09859 -0.52533,4.1643 -0.0657,0.0656 -0.28473,-1.73515 -0.48673,-4.0019 -0.20199,-2.26675 -0.47406,-4.12137 -0.60458,-4.12137 -0.13052,0 -0.24327,0.3509 -0.25055,0.77978 -0.007,0.42887 -0.17428,1.60919 -0.37111,2.6229 l -0.35786,1.84311 -0.38059,-2.55199 c -0.4929,-3.30511 -0.70561,-3.70722 -1.15955,-2.19211 -0.39341,1.31308 -0.70001,1.33359 -0.97855,0.0654 -0.33938,-1.54515 -0.64695,-1.15578 -1.00893,1.27731 -0.19711,1.3249 -0.4449,2.40891 -0.55063,2.40891 -0.10579,0 -0.35465,-1.0916 -0.55315,-2.42581 -0.19849,-1.33418 -0.39959,-2.38688 -0.4469,-2.33932 -0.0473,0.0475 -0.2881,2.11728 -0.53509,4.59941 -0.24699,2.4821 -0.4947,4.55854 -0.55046,4.61431 -0.0557,0.0557 -0.26946,-1.87936 -0.4749,-4.30029 -0.20545,-2.4209 -0.46602,-4.40164 -0.57908,-4.40164 -0.11304,0 -0.29219,0.86281 -0.3981,1.91732 -0.10589,1.05453 -0.28728,2.36243 -0.40306,2.90646 -0.18818,0.88416 -0.24744,0.73333 -0.55838,-1.4211 -0.67977,-4.71011 -0.42871,-4.25334 -2.33779,-4.25334 -1.66628,0 -1.66979,-0.002 -1.66979,-0.85068 0,-0.84892 0.003,-0.85067 1.6706,-0.85067 1.93818,0 1.77204,0.29223 2.3376,-4.11156 l 0.36415,-2.83557 0.38369,2.69379 c 0.62044,4.35615 0.79542,4.23289 1.21059,-0.85277 0.42647,-5.22412 0.55007,-5.10067 1.13764,1.13633 0.37292,3.95862 0.56685,4.09062 0.99344,0.67624 0.10545,-0.84393 0.28456,-1.59179 0.39803,-1.66192 0.11349,-0.0701 0.36859,0.96307 0.56688,2.29599 0.37873,2.5456 0.56126,2.67438 1.15707,0.81636 l 0.3637,-1.13422 0.49923,1.41778 c 0.27459,0.77978 0.51853,1.35398 0.5421,1.276 0.0236,-0.078 0.26442,-1.48159 0.53523,-3.11913 l 0.4924,-2.97733 0.37487,2.552 c 0.20618,1.40361 0.46216,2.79054 0.56885,3.08209 0.10665,0.29155 0.36676,-1.49485 0.57793,-3.96978 0.4307,-5.048 0.59061,-4.95013 1.13302,0.69349 0.19875,2.06821 0.39532,3.72358 0.43676,3.67862 0.0415,-0.045 0.23542,-2.63374 0.43106,-5.75287 0.19566,-3.11911 0.44369,-5.84163 0.5512,-6.05002 0.1075,-0.20839 0.36381,2.31293 0.56954,5.60292 0.20576,3.29 0.4204,5.9355 0.47702,5.87888 0.0566,-0.0566 0.30205,-2.19479 0.54539,-4.75149 0.24336,-2.55669 0.47875,-4.68482 0.52308,-4.72917 0.0444,-0.0444 0.24676,1.97066 0.44982,4.47778 0.20305,2.50711 0.46066,4.61492 0.57243,4.684 0.11179,0.0691 0.29325,-0.79786 0.40327,-1.92653 0.11001,-1.12868 0.29172,-2.56254 0.40379,-3.18637 0.19205,-1.06881 0.22367,-0.99521 0.54839,1.27601 0.18954,1.32562 0.42871,2.92063 0.53153,3.54445 l 0.18695,1.13423 0.47659,-1.9849 0.47657,-1.98489 0.33767,1.276 c 0.18571,0.7018 0.44318,1.59501 0.57215,1.98489 l 0.23448,0.7089 0.32577,-0.85067 c 0.17917,-0.46787 0.40064,-1.04207 0.49215,-1.276 0.10737,-0.27451 0.32459,0.0271 0.61254,0.85067 l 0.44618,1.276 0.21949,-0.85067 c 0.12072,-0.46787 0.37641,-1.99907 0.56823,-3.40268 l 0.34873,-2.55201 0.46477,3.11912 c 0.57004,3.82559 0.69899,3.43214 1.16038,-3.54065 0.19077,-2.88311 0.38386,-5.11612 0.42906,-4.96225 0.0452,0.15387 0.28272,2.8253 0.52782,5.9365 0.24511,3.11121 0.48498,5.69608 0.53306,5.74416 0.0481,0.0481 0.25563,-3.35971 0.46122,-7.57288 0.20558,-4.21317 0.43045,-7.60365 0.49969,-7.53441 0.13182,0.13182 0.89104,11.86275 0.90819,14.03258 0.005,0.6888 0.0608,1.1992 0.12286,1.13423 0.0622,-0.0649 0.2679,-3.62716 0.45726,-7.91596 0.18934,-4.28879 0.43553,-8.180597 0.54705,-8.648477 0.11639,-0.48824 0.36433,2.743587 0.58196,7.585637 0.20855,4.63997 0.42192,8.39358 0.47415,8.34135 0.0911,-0.091 0.93597,-20.701687 0.94254,-22.992267 0.002,-0.61083 0.051,-1.05743 0.10942,-0.99244 0.0584,0.0649 0.26258,4.90316 0.45369,10.751507 0.19112,5.84836 0.43841,11.01573 0.54955,11.48304 0.11209,0.47129 0.36614,-3.31697 0.5705,-8.5067 0.20263,-5.145997 0.41794,-9.409517 0.47847,-9.474497 0.0606,-0.0649 0.11003,0.28686 0.11003,0.78189 0,1.58434 0.88936,19.176637 0.97372,19.261007 0.0447,0.0447 0.24685,-3.17711 0.44931,-7.15946 0.20246,-3.98237 0.43083,-7.17794 0.5075,-7.10127 0.14621,0.14621 0.86624,10.90517 0.89079,13.31063 0.025,2.44994 0.24799,1.27285 0.58701,-3.09894 0.48807,-6.29363 0.69907,-6.40811 1.13116,-0.6137 0.20727,2.77968 0.46394,4.88509 0.57037,4.67868 0.10642,-0.20642 0.36561,-1.7151 0.57595,-3.35264 l 0.38245,-2.97734 0.46258,3.33131 c 0.25443,1.83222 0.52739,3.39611 0.60659,3.47531 0.0792,0.0792 0.30529,-0.57667 0.5024,-1.45747 0.38742,-1.73116 0.69828,-1.6568 1.01939,0.2438 0.29793,1.76351 0.6104,1.47251 0.98169,-0.91428 0.19337,-1.24293 0.44577,-2.20166 0.5609,-2.1305 0.11514,0.0712 0.36598,1.10036 0.55743,2.28711 0.19143,1.18676 0.39189,2.11393 0.44545,2.06039 0.0536,-0.0536 0.24405,-1.75458 0.42334,-3.78008 0.49282,-5.56748 0.69666,-5.7063 1.12662,-0.76726 0.20696,2.37733 0.42541,4.27329 0.48546,4.21325 0.06,-0.06 0.29746,-2.77316 0.52759,-6.02917 0.23014,-3.25599 0.4544,-6.11139 0.49836,-6.34532 0.0439,-0.23394 0.24905,2.12668 0.45576,5.24579 0.20673,3.11913 0.46711,5.84144 0.57864,6.04958 0.11153,0.20815 0.37145,-3.07853 0.57763,-7.30373 0.20617,-4.22518 0.40737,-7.649287 0.44711,-7.609127 0.0398,0.0402 0.28087,3.577647 0.53586,7.861077 0.25499,4.28342 0.49865,7.82306 0.54144,7.86586 0.0825,0.0825 0.74057,-15.604397 0.7756,-18.489467 0.0169,-1.40121 0.0612,-1.55128 0.25031,-0.85067 0.12632,0.46786 0.39519,5.061477 0.5975,10.208037 0.2023,5.14654 0.40561,9.16595 0.45179,8.93202 0.0462,-0.23393 0.26837,-3.91588 0.49375,-8.1821 0.22538,-4.26621 0.46039,-7.807357 0.52224,-7.869207 0.0618,-0.0618 0.28346,3.489157 0.49247,7.891137 0.21486,4.52525 0.47104,7.69872 0.58943,7.30211 0.11517,-0.38583 0.35903,-3.25351 0.54191,-6.37263 0.18287,-3.11912 0.36721,-5.70625 0.40964,-5.74917 0.0424,-0.0429 0.23527,2.57288 0.42851,5.81291 0.477,7.99759 0.66987,8.5772 1.13139,3.40003 0.20556,-2.30574 0.41289,-4.1531 0.46074,-4.10525 0.0478,0.0478 0.29639,1.99773 0.55232,4.33306 0.25591,2.33534 0.50264,4.28341 0.54828,4.32906 0.10288,0.10287 0.72237,-4.00317 0.72237,-4.78806 0,-0.31474 0.10893,-0.50493 0.24207,-0.42265 0.13313,0.0823 0.40663,1.33391 0.60776,2.78141 0.20114,1.44749 0.40745,2.5042 0.45845,2.34824 0.051,-0.15595 0.2763,-2.43051 0.50064,-5.05457 0.22434,-2.62405 0.46474,-4.82786 0.53422,-4.89734 0.0695,-0.0694 0.29507,2.052 0.50131,4.71439 0.20625,2.6624 0.46803,4.89822 0.58174,4.9685 0.1137,0.0703 0.29868,-0.54224 0.411047,-1.36117 0.36853,-2.68564 0.58983,-2.80772 0.99365,-0.54811 0.204,1.14148 0.45953,1.90688 0.568,1.70132 0.10844,-0.20554 0.36106,-3.53366 0.56137,-7.39587 0.20029,-3.86219 0.39835,-6.98801 0.44011,-6.94625 0.0418,0.0418 0.28881,3.26555 0.54899,7.16396 0.44279,6.63438 0.7131,8.97337 0.70176,6.07195 -0.0152,-3.89889 0.71282,-21.776107 0.86905,-21.338747 0.10235,0.28653 0.34823,5.36979 0.54639,11.296117 0.19816,5.92633 0.40844,10.82832 0.46731,10.8933 0.0588,0.0649 0.10909,-0.44542 0.11159,-1.13422 0.0108,-2.82067 0.84595,-27.008587 0.93625,-27.098887 0.0537,-0.0537 0.26849,5.90311 0.47725,13.23743 0.20875,7.334327 0.4673,13.235567 0.57453,13.113887 0.10724,-0.1217 0.3521,-4.17686 0.54414,-9.01151 0.19205,-4.834627 0.40164,-8.843407 0.46579,-8.908387 0.0641,-0.0649 0.11713,0.50922 0.11775,1.27599 0.002,2.12421 0.83843,18.632737 0.95004,18.744347 0.0538,0.0538 0.26382,-2.64972 0.46661,-6.00793 0.20278,-3.35821 0.40686,-6.06768 0.45349,-6.02103 0.0466,0.0466 0.2894,2.82405 0.53945,6.17203 0.25006,3.34798 0.49194,6.21485 0.53754,6.3708 0.0457,0.15596 0.25091,-1.02435 0.45629,-2.6229 0.20536,-1.59855 0.45972,-2.90645 0.56524,-2.90645 0.10556,0 0.35572,1.28589 0.55601,2.85753 0.2003,1.57164 0.45461,2.75193 0.56517,2.62289 0.11055,-0.12904 0.3705,-0.80883 0.57767,-1.51063 l 0.37666,-1.276 0.47396,1.55955 c 0.4525,1.48898 0.48196,1.52106 0.65074,0.7089 0.0972,-0.46787 0.33706,-2.31808 0.53296,-4.11158 l 0.35619,-3.26089 0.34417,2.41023 c 0.1893,1.32562 0.35379,2.8812 0.36555,3.45683 0.0119,0.57563 0.12884,1.11302 0.26018,1.19419 0.13135,0.0811 0.40694,-3.67638 0.61243,-8.35012 0.20549,-4.67374 0.41213,-8.459207 0.4592,-8.412137 0.0864,0.0864 0.95802,15.147397 0.95802,16.552787 0,0.41633 0.0507,0.70382 0.11269,0.63884 0.0619,-0.0649 0.27507,-4.93507 0.47354,-10.82241 0.19847,-5.887337 0.44624,-10.704257 0.55062,-10.704257 0.10439,0 0.35678,4.78738 0.56091,10.638637 0.20412,5.85124 0.4083,10.60145 0.45374,10.556 0.0454,-0.0454 0.28475,-6.32449 0.53179,-13.95346 0.24705,-7.628977 0.48841,-13.910087 0.53637,-13.958027 0.0479,-0.0479 0.25329,5.75024 0.45632,12.88487 0.20305,7.134617 0.45631,13.137497 0.56282,13.339717 0.10653,0.20222 0.35745,-3.37059 0.55763,-7.93958 0.20019,-4.569 0.41509,-8.360427 0.47756,-8.425397 0.0625,-0.0649 0.11357,0.3892 0.11357,1.00929 0,1.78863 0.85535,17.497447 0.95835,17.600447 0.0511,0.0511 0.25786,-2.08148 0.45942,-4.73911 0.20158,-2.65762 0.41361,-4.78493 0.47118,-4.72735 0.0905,0.0904 0.89108,7.81621 0.9748,9.40604 0.0436,0.8287 0.47203,-1.13579 0.69563,-3.19002 0.10609,-0.97472 0.28295,-1.77222 0.39297,-1.77222 0.11003,0 0.3705,1.24152 0.57884,2.75895 0.39665,2.88901 0.49655,2.91968 1.17296,0.36016 l 0.33721,-1.276 0.48118,1.84312 0.48119,1.84312 0.18153,-1.55957 c 0.0999,-0.85775 0.32497,-3.98396 0.50027,-6.94713 0.29633,-5.00877 0.5239,-6.94314 0.54766,-4.65504 0.0178,1.72652 0.79009,11.92974 0.91207,12.0517 0.065,0.065 0.28812,-4.98602 0.49565,-11.22467 0.20751,-6.238657 0.41757,-11.302757 0.46676,-11.253567 0.1,0.1 0.95103,19.658847 0.95103,21.855947 0,3.05351 0.24543,0.85053 0.58095,-5.21481 0.19411,-3.50901 0.4406,-6.48001 0.54772,-6.60224 0.10718,-0.12222 0.36462,2.78096 0.57216,6.45152 0.20754,3.67056 0.43363,6.61746 0.50244,6.54866 0.0688,-0.0688 0.30679,-1.68912 0.52888,-3.60074 0.2221,-1.91161 0.44594,-3.51781 0.49746,-3.56933 0.0515,-0.0516 0.26139,1.53664 0.46633,3.52924 0.48151,4.68109 0.67826,3.87752 1.12634,-4.60022 0.18957,-3.58699 0.39431,-6.57498 0.45498,-6.63995 0.0607,-0.0649 0.11382,0.31781 0.11809,0.85067 0.0139,1.73776 0.81016,13.36532 0.92288,13.47804 0.0603,0.0603 0.27956,-5.37739 0.48711,-12.08388 0.20756,-6.706507 0.42264,-12.148377 0.47794,-12.093067 0.11624,0.11623 0.92702,20.055317 0.93471,22.986357 0.009,3.44767 0.23377,1.8888 0.58948,-4.08904 0.19021,-3.19649 0.43402,-5.98079 0.54179,-6.18729 0.1078,-0.20653 0.36719,2.46007 0.57647,5.92576 0.20928,3.46569 0.46752,6.05907 0.57387,5.76306 0.10631,-0.296 0.34602,-1.74632 0.53257,-3.22291 0.18654,-1.47659 0.3727,-2.71823 0.41366,-2.75918 0.0409,-0.0409 0.24171,1.29384 0.44609,2.96623 0.48189,3.94284 0.58676,4.16597 1.15736,2.46217 l 0.46962,-1.40228 0.3637,1.13422 c 0.20007,0.62383 0.45865,1.2382 0.57468,1.36527 0.11602,0.12706 0.38122,-1.00895 0.58928,-2.5245 0.41474,-3.02078 0.54584,-2.9414 1.12539,0.68152 0.18248,1.14087 0.36998,2.03408 0.41666,1.9849 0.0467,-0.0492 0.24438,-2.25861 0.43934,-4.90987 0.19498,-2.65125 0.44226,-4.99109 0.54953,-5.19966 0.10725,-0.20855 0.36311,1.93014 0.56855,4.75265 0.20543,2.82251 0.41462,5.09073 0.46487,5.04047 0.0503,-0.0503 0.29056,-3.97533 0.53403,-8.72242 0.24346,-4.7471 0.47852,-8.753597 0.52231,-8.903337 0.0438,-0.14975 0.24392,3.295457 0.44471,7.656027 0.47008,10.21003 0.65112,11.14581 1.12247,5.80185 0.19947,-2.26124 0.40049,-4.14917 0.44673,-4.19543 0.0872,-0.0872 0.20255,0.82519 0.75415,5.96741 l 0.32696,3.04823 h 1.80424 1.80424 v 0.85067 0.85068 h -1.81651 -1.81651 l -0.16696,1.34687 c -0.0918,0.74081 -0.30854,2.75051 -0.48158,4.46604 -0.17306,1.71552 -0.35,3.1572 -0.39324,3.20374 -0.0432,0.0464 -0.24046,-1.64418 -0.43827,-3.75713 -0.19782,-2.11295 -0.44776,-3.84174 -0.55543,-3.84174 -0.10765,0 -0.36409,3.82889 -0.56983,8.50862 -0.20577,4.67976 -0.40734,8.47542 -0.44795,8.43482 -0.0406,-0.0407 -0.28783,-4.029 -0.54939,-8.86308 -0.44182,-8.16561 -0.668,-10.62173 -0.72891,-7.91497 -0.0632,2.81046 -0.73883,9.26874 -0.90224,8.62486 -0.0989,-0.3899 -0.35069,-2.8143 -0.55943,-5.38757 l -0.37954,-4.67868 -0.36242,2.12666 c -0.63319,3.71563 -0.75041,3.8064 -1.16648,0.90361 -0.20685,-1.4432 -0.46015,-2.67593 -0.56286,-2.73942 -0.10268,-0.0634 -0.35376,0.48312 -0.55784,1.21465 l -0.37107,1.33006 -0.37935,-0.85066 c -0.20864,-0.46787 -0.38509,-1.08151 -0.39212,-1.36365 -0.007,-0.28211 -0.12297,-0.44485 -0.25766,-0.3616 -0.13468,0.0832 -0.41209,1.59007 -0.61647,3.34852 -0.41112,3.53736 -0.50617,3.45081 -1.15988,-1.05615 l -0.37016,-2.55202 -0.3374,4.53689 c -0.18555,2.49531 -0.3493,5.34194 -0.36386,6.32587 -0.0534,3.60617 -0.50918,1.341 -0.88524,-4.39935 -0.21245,-3.24296 -0.42245,-5.70491 -0.46666,-5.47096 -0.0441,0.23392 -0.27568,5.77513 -0.51439,12.31375 -0.23869,6.53862 -0.476,11.9304 -0.5273,11.98172 -0.0513,0.0513 -0.26228,-5.08046 -0.4688,-11.40398 -0.2065,-6.32349 -0.45916,-11.54899 -0.56146,-11.61221 -0.10224,-0.0632 -0.34796,2.84498 -0.54595,6.46268 -0.19796,3.6177 -0.39428,6.61254 -0.43622,6.65523 -0.0419,0.0427 -0.23966,-2.76455 -0.43939,-6.23824 -0.52588,-9.14654 -0.64938,-9.71357 -1.12845,-5.18163 -0.43431,4.10835 -0.56997,3.99797 -1.1493,-0.93523 -0.18863,-1.60606 -0.3781,-2.88208 -0.42109,-2.83556 -0.043,0.0464 -0.24072,3.05129 -0.43943,6.67726 -0.19873,3.62598 -0.44476,6.59267 -0.54673,6.59267 -0.10203,0 -0.35305,-2.87495 -0.55789,-6.38881 -0.20486,-3.51385 -0.40829,-6.35298 -0.45208,-6.30914 -0.0438,0.0438 -0.28488,5.17628 -0.53573,11.40538 -0.25085,6.22916 -0.49671,11.36633 -0.54634,11.41595 -0.0496,0.0497 -0.25971,-4.76577 -0.46682,-10.70095 -0.2071,-5.93515 -0.46063,-10.84317 -0.56339,-10.90668 -0.10278,-0.0636 -0.34762,2.59017 -0.5441,5.89706 -0.19647,3.30688 -0.40956,6.06571 -0.47351,6.1307 -0.064,0.0649 -0.11727,-0.31784 -0.1185,-0.85069 -0.001,-0.53283 -0.19084,-3.52081 -0.42132,-6.63994 -0.23049,-3.11911 -0.43321,-5.86253 -0.45051,-6.09646 -0.0172,-0.23394 -0.25479,0.40406 -0.52779,1.41778 l -0.49635,1.84312 -0.33722,-1.27602 c -0.67956,-2.5714 -0.78808,-2.55087 -1.17062,0.22158 -0.19972,1.44751 -0.45019,2.68561 -0.55657,2.75134 -0.10643,0.0658 -0.35966,-1.09119 -0.56282,-2.57096 -0.20318,-1.47979 -0.40628,-2.65364 -0.45134,-2.60857 -0.045,0.0449 -0.28747,2.244 -0.53865,4.8865 -0.25119,2.6425 -0.49568,4.84357 -0.54335,4.89123 -0.0477,0.0478 -0.25237,-1.95939 -0.45491,-4.46009 -0.20254,-2.50069 -0.43122,-4.48377 -0.50816,-4.40681 -0.14366,0.1437 -0.89,13.54538 -0.9078,16.30067 -0.0218,3.37662 -0.25429,0.92227 -0.57526,-6.07285 -0.18604,-4.05485 -0.42898,-7.94668 -0.53985,-8.64847 -0.11619,-0.73542 -0.36552,4.57998 -0.58853,12.54675 -0.21281,7.60252 -0.42599,13.7837 -0.47373,13.73597 -0.0938,-0.0937 -0.95118,-24.01104 -0.95148,-26.54266 -1.1e-4,-0.84474 -0.0512,-1.48276 -0.11351,-1.41778 -0.0624,0.0649 -0.27259,4.77557 -0.46725,10.46798 -0.19466,5.69238 -0.44074,10.51803 -0.54683,10.72366 -0.10609,0.20553 -0.36243,-4.48494 -0.56964,-10.4235 -0.20724,-5.93854 -0.42092,-10.75322 -0.47487,-10.69926 -0.0539,0.0539 -0.29566,3.8472 -0.53713,8.42945 -0.24146,4.58224 -0.47528,8.36761 -0.51959,8.41191 -0.0442,0.0445 -0.24743,-3.52438 -0.45135,-7.93042 -0.20393,-4.40604 -0.47207,-8.26619 -0.59587,-8.5781 -0.19678,-0.49573 -0.22737,-0.47024 -0.24308,0.20246 -0.0255,1.09026 -0.65133,6.48986 -0.74144,6.39666 -0.0412,-0.0425 -0.21753,-1.35337 -0.39198,-2.91294 -0.17446,-1.55956 -0.39947,-3.34597 -0.50005,-3.96979 l -0.18287,-1.13421 -0.49112,1.55954 c -0.28009,0.88946 -0.55459,1.37681 -0.63883,1.13423 -0.0813,-0.23392 -0.30867,-0.93574 -0.50537,-1.55956 l -0.35764,-1.13421 -0.21291,0.99245 c -0.11709,0.54583 -0.2999,1.79173 -0.40624,2.76859 -0.10631,0.97692 -0.28588,1.83337 -0.39899,1.90328 -0.11311,0.07 -0.37396,-1.14462 -0.57968,-2.69895 -0.20574,-1.55433 -0.41228,-2.78781 -0.45901,-2.74109 -0.0467,0.0467 -0.28763,2.88217 -0.53535,6.301 -0.24771,3.41881 -0.48681,6.25246 -0.53133,6.29698 -0.0445,0.0444 -0.25288,-2.56709 -0.46302,-5.80356 -0.24072,-3.70724 -0.45658,-5.56974 -0.58343,-5.03381 -0.11073,0.46785 -0.35671,4.87009 -0.54662,9.78269 -0.18992,4.91262 -0.39493,8.98521 -0.4556,9.05017 -0.0607,0.0649 -0.11139,-0.38161 -0.11271,-0.99243 -0.004,-2.02851 -0.83388,-18.34593 -0.93784,-18.4499 -0.0562,-0.0561 -0.29415,6.18276 -0.52877,13.86436 -0.23464,7.68159 -0.44996,13.83894 -0.47849,13.68296 z"
         id="path24" />
    </g>
  </g>
</svg>
